<svg class="animated" id="freepik_stories-report" xmlns="http://www.w3.org/2000/svg" viewBox="0 0 500 500" version="1.1" xmlns:xlink="http://www.w3.org/1999/xlink" xmlns:svgjs="http://svgjs.com/svgjs"><style>svg#freepik_stories-report:not(.animated) .animable {opacity: 0;}svg#freepik_stories-report.animated #elqdytqmmzs4m {animation: 1s 1 forwards cubic-bezier(.36,-0.01,.5,1.38) zoomOut;animation-delay: 0s;}svg#freepik_stories-report.animated #elajo13bl9xm {animation: 1s 1 forwards cubic-bezier(.36,-0.01,.5,1.38) zoomOut;animation-delay: 0.019230769230769232s;opacity: 0}svg#freepik_stories-report.animated #elihpe63u2icp {animation: 1s 1 forwards cubic-bezier(.36,-0.01,.5,1.38) zoomOut;animation-delay: 0.038461538461538464s;opacity: 0}svg#freepik_stories-report.animated #elwayld8d84dp {animation: 1s 1 forwards cubic-bezier(.36,-0.01,.5,1.38) zoomOut;animation-delay: 0.057692307692307696s;opacity: 0}svg#freepik_stories-report.animated #el2n2knqhti4h {animation: 1s 1 forwards cubic-bezier(.36,-0.01,.5,1.38) zoomOut;animation-delay: 0.07692307692307693s;opacity: 0}svg#freepik_stories-report.animated #el6pfhoaort2x {animation: 1s 1 forwards cubic-bezier(.36,-0.01,.5,1.38) zoomOut;animation-delay: 0.09615384615384616s;opacity: 0}svg#freepik_stories-report.animated #elucir5hcii6j {animation: 1s 1 forwards cubic-bezier(.36,-0.01,.5,1.38) zoomOut;animation-delay: 0.11538461538461539s;opacity: 0}svg#freepik_stories-report.animated #ellsqaqnt3jwp {animation: 1s 1 forwards cubic-bezier(.36,-0.01,.5,1.38) zoomOut;animation-delay: 0.13461538461538464s;opacity: 0}svg#freepik_stories-report.animated #el1uao5psbzj4 {animation: 1s 1 forwards cubic-bezier(.36,-0.01,.5,1.38) zoomOut;animation-delay: 0.15384615384615385s;opacity: 0}svg#freepik_stories-report.animated #ele50ufyx33h {animation: 1s 1 forwards cubic-bezier(.36,-0.01,.5,1.38) zoomOut;animation-delay: 0.17307692307692307s;opacity: 0}svg#freepik_stories-report.animated #el98imojhj2pi {animation: 1s 1 forwards cubic-bezier(.36,-0.01,.5,1.38) zoomOut;animation-delay: 0.19230769230769232s;opacity: 0}svg#freepik_stories-report.animated #elxr7egtbryag {animation: 1s 1 forwards cubic-bezier(.36,-0.01,.5,1.38) zoomOut;animation-delay: 0.21153846153846156s;opacity: 0}svg#freepik_stories-report.animated #elbcrf9vufllg {animation: 1s 1 forwards cubic-bezier(.36,-0.01,.5,1.38) zoomOut;animation-delay: 0.23076923076923078s;opacity: 0}svg#freepik_stories-report.animated #elrb0r6pyy2ug {animation: 1s 1 forwards cubic-bezier(.36,-0.01,.5,1.38) zoomOut;animation-delay: 0.25s;opacity: 0}svg#freepik_stories-report.animated #elljg33nzg1h {animation: 1s 1 forwards cubic-bezier(.36,-0.01,.5,1.38) zoomOut;animation-delay: 0.2692307692307693s;opacity: 0}svg#freepik_stories-report.animated #elpxl612j3kt8 {animation: 1s 1 forwards cubic-bezier(.36,-0.01,.5,1.38) zoomOut;animation-delay: 0.2884615384615385s;opacity: 0}svg#freepik_stories-report.animated #el3v5yo1j8elc {animation: 1s 1 forwards cubic-bezier(.36,-0.01,.5,1.38) zoomOut;animation-delay: 0.3076923076923077s;opacity: 0}svg#freepik_stories-report.animated #elosr1z40x56 {animation: 1s 1 forwards cubic-bezier(.36,-0.01,.5,1.38) zoomOut;animation-delay: 0.3269230769230769s;opacity: 0}svg#freepik_stories-report.animated #eldnbqqrf76q {animation: 1s 1 forwards cubic-bezier(.36,-0.01,.5,1.38) zoomOut;animation-delay: 0.34615384615384615s;opacity: 0}svg#freepik_stories-report.animated #el7ayi5fkbo5c {animation: 1s 1 forwards cubic-bezier(.36,-0.01,.5,1.38) zoomOut;animation-delay: 0.3653846153846154s;opacity: 0}svg#freepik_stories-report.animated #elztnfnjluyth {animation: 1s 1 forwards cubic-bezier(.36,-0.01,.5,1.38) zoomOut;animation-delay: 0.38461538461538464s;opacity: 0}svg#freepik_stories-report.animated #el7c2hlbh7vlb {animation: 1s 1 forwards cubic-bezier(.36,-0.01,.5,1.38) zoomOut;animation-delay: 0.40384615384615385s;opacity: 0}svg#freepik_stories-report.animated #eltkq8d3385h {animation: 1s 1 forwards cubic-bezier(.36,-0.01,.5,1.38) zoomOut;animation-delay: 0.42307692307692313s;opacity: 0}svg#freepik_stories-report.animated #elfmmipo43lsl {animation: 1s 1 forwards cubic-bezier(.36,-0.01,.5,1.38) zoomOut;animation-delay: 0.44230769230769235s;opacity: 0}svg#freepik_stories-report.animated #elwnezt130sm {animation: 1s 1 forwards cubic-bezier(.36,-0.01,.5,1.38) zoomOut;animation-delay: 0.46153846153846156s;opacity: 0}svg#freepik_stories-report.animated #elzcboafgz2wm {animation: 1s 1 forwards cubic-bezier(.36,-0.01,.5,1.38) zoomOut;animation-delay: 0.4807692307692308s;opacity: 0}svg#freepik_stories-report.animated #el1uqos4paes7 {animation: 1s 1 forwards cubic-bezier(.36,-0.01,.5,1.38) zoomOut;animation-delay: 0.5s;opacity: 0}svg#freepik_stories-report.animated #el6j1wcoa8zuu {animation: 1s 1 forwards cubic-bezier(.36,-0.01,.5,1.38) zoomOut;animation-delay: 0.5192307692307693s;opacity: 0}svg#freepik_stories-report.animated #elyd0qr83jxp {animation: 1s 1 forwards cubic-bezier(.36,-0.01,.5,1.38) zoomOut;animation-delay: 0.5384615384615385s;opacity: 0}svg#freepik_stories-report.animated #el4xsx3evdz6c {animation: 1s 1 forwards cubic-bezier(.36,-0.01,.5,1.38) zoomOut;animation-delay: 0.5576923076923077s;opacity: 0}svg#freepik_stories-report.animated #elajefaxyxwz {animation: 1s 1 forwards cubic-bezier(.36,-0.01,.5,1.38) zoomOut;animation-delay: 0.576923076923077s;opacity: 0}svg#freepik_stories-report.animated #el3mozbrf2jfw {animation: 1s 1 forwards cubic-bezier(.36,-0.01,.5,1.38) zoomOut;animation-delay: 0.5961538461538461s;opacity: 0}svg#freepik_stories-report.animated #elfaocsf4oecd {animation: 1s 1 forwards cubic-bezier(.36,-0.01,.5,1.38) zoomOut;animation-delay: 0.6153846153846154s;opacity: 0}svg#freepik_stories-report.animated #el4h946wnsb9l {animation: 1s 1 forwards cubic-bezier(.36,-0.01,.5,1.38) zoomOut;animation-delay: 0.6346153846153847s;opacity: 0}svg#freepik_stories-report.animated #el5i3nmwwphv6 {animation: 1s 1 forwards cubic-bezier(.36,-0.01,.5,1.38) zoomOut;animation-delay: 0.6538461538461539s;opacity: 0}svg#freepik_stories-report.animated #elvjbbovd969 {animation: 1s 1 forwards cubic-bezier(.36,-0.01,.5,1.38) zoomOut;animation-delay: 0.6730769230769231s;opacity: 0}svg#freepik_stories-report.animated #el356sm4lf6zy {animation: 1s 1 forwards cubic-bezier(.36,-0.01,.5,1.38) zoomOut;animation-delay: 0.6923076923076923s;opacity: 0}svg#freepik_stories-report.animated #el1yuqysc3t6l {animation: 1s 1 forwards cubic-bezier(.36,-0.01,.5,1.38) zoomOut;animation-delay: 0.7115384615384616s;opacity: 0}svg#freepik_stories-report.animated #elnbztlcwfj1 {animation: 1s 1 forwards cubic-bezier(.36,-0.01,.5,1.38) zoomOut;animation-delay: 0.7307692307692308s;opacity: 0}svg#freepik_stories-report.animated #el0eyzm9gkqgk {animation: 1s 1 forwards cubic-bezier(.36,-0.01,.5,1.38) zoomOut;animation-delay: 0.75s;opacity: 0}svg#freepik_stories-report.animated #els45jdb7e0c {animation: 1s 1 forwards cubic-bezier(.36,-0.01,.5,1.38) zoomOut;animation-delay: 0.7692307692307693s;opacity: 0}svg#freepik_stories-report.animated #elzbdigcgtnr {animation: 1s 1 forwards cubic-bezier(.36,-0.01,.5,1.38) zoomOut;animation-delay: 0.7884615384615385s;opacity: 0}svg#freepik_stories-report.animated #elg0rb4hk2h7l {animation: 1s 1 forwards cubic-bezier(.36,-0.01,.5,1.38) zoomOut;animation-delay: 0.8076923076923077s;opacity: 0}svg#freepik_stories-report.animated #elxhv6q7dkus {animation: 1s 1 forwards cubic-bezier(.36,-0.01,.5,1.38) zoomOut;animation-delay: 0.826923076923077s;opacity: 0}svg#freepik_stories-report.animated #el75y06hk35il {animation: 1s 1 forwards cubic-bezier(.36,-0.01,.5,1.38) zoomOut;animation-delay: 0.8461538461538463s;opacity: 0}svg#freepik_stories-report.animated #eloau6d0h1epf {animation: 1s 1 forwards cubic-bezier(.36,-0.01,.5,1.38) zoomOut;animation-delay: 0.8653846153846154s;opacity: 0}svg#freepik_stories-report.animated #elm03cw17bti {animation: 1s 1 forwards cubic-bezier(.36,-0.01,.5,1.38) zoomOut;animation-delay: 0.8846153846153847s;opacity: 0}svg#freepik_stories-report.animated #el00jctntd40r6l {animation: 1s 1 forwards cubic-bezier(.36,-0.01,.5,1.38) zoomOut;animation-delay: 0.9038461538461539s;opacity: 0}svg#freepik_stories-report.animated #el80hjf2dx20a {animation: 1s 1 forwards cubic-bezier(.36,-0.01,.5,1.38) zoomOut;animation-delay: 0.9230769230769231s;opacity: 0}svg#freepik_stories-report.animated #elbt85ul61ph8 {animation: 1s 1 forwards cubic-bezier(.36,-0.01,.5,1.38) zoomOut;animation-delay: 0.9423076923076924s;opacity: 0}svg#freepik_stories-report.animated #el274i4ywefbu {animation: 1s 1 forwards cubic-bezier(.36,-0.01,.5,1.38) zoomOut;animation-delay: 0.9615384615384616s;opacity: 0}svg#freepik_stories-report.animated #eliv3pfngg5u {animation: 1s 1 forwards cubic-bezier(.36,-0.01,.5,1.38) zoomOut;animation-delay: 0.9807692307692308s;opacity: 0}svg#freepik_stories-report.animated #freepik--background-complete--inject-23 {animation: 1s 1 forwards cubic-bezier(.36,-0.01,.5,1.38) zoomOut;animation-delay: 0s;}svg#freepik_stories-report.animated #freepik--Shadow--inject-23 {animation: 1s 1 forwards cubic-bezier(.36,-0.01,.5,1.38) zoomOut;animation-delay: 0s;}svg#freepik_stories-report.animated #freepik--Floor--inject-23 {animation: 1s 1 forwards cubic-bezier(.36,-0.01,.5,1.38) slideDown;animation-delay: 0s;}svg#freepik_stories-report.animated #freepik--Board--inject-23 {animation: 1s 1 forwards cubic-bezier(.36,-0.01,.5,1.38) zoomOut;animation-delay: 0s;}svg#freepik_stories-report.animated #freepik--Character--inject-23 {animation: 1s 1 forwards cubic-bezier(.36,-0.01,.5,1.38) slideLeft;animation-delay: 0s;}svg#freepik_stories-report.animated #freepik--Plant--inject-23 {animation: 1s 1 forwards cubic-bezier(.36,-0.01,.5,1.38) slideLeft;animation-delay: 0s;}            @keyframes zoomOut {                0% {                    opacity: 0;                    transform: scale(1.5);                }                100% {                    opacity: 1;                    transform: scale(1);                }            }                    @keyframes slideDown {                0% {                    opacity: 0;                    transform: translateY(-30px);                }                100% {                    opacity: 1;                    transform: translateY(0);                }            }                    @keyframes slideLeft {                0% {                    opacity: 0;                    transform: translateX(-30px);                }                100% {                    opacity: 1;                    transform: translateX(0);                }            }        </style><g id="freepik--background-complete--inject-23" class="animable" style="transform-origin: 240.899px 241.755px;"><path d="M232.75,343.39a35.75,35.75,0,1,1-35.35-41v35.74Z" style="fill: rgb(235, 235, 235); transform-origin: 197.194px 338.14px;" id="elqdytqmmzs4m" class="animable"></path><path d="M240.42,330.87a34.75,34.75,0,0,1-.39,5.24l-35.35-5.24V295.13a35.71,35.71,0,0,1,35.74,35.74Z" style="fill: rgb(219, 219, 219); transform-origin: 222.55px 315.62px;" id="elajo13bl9xm" class="animable"></path><path d="M76.9,193.81v29.47L57.78,245.69A29.47,29.47,0,0,1,76.9,193.81Z" style="fill: rgb(235, 235, 235); transform-origin: 62.1741px 219.75px;" id="elihpe63u2icp" class="animable"></path><path d="M112.37,226.28a29.47,29.47,0,0,1-48.59,22.41L82.9,226.28V196.81a29.45,29.45,0,0,1,29.47,29.47Z" style="fill: rgb(235, 235, 235); transform-origin: 88.075px 226.272px;" id="elwayld8d84dp" class="animable"></path><path d="M112.37,226.28a29.47,29.47,0,0,1-48.59,22.41L82.9,226.28V196.81a29.45,29.45,0,0,1,29.47,29.47Z" style="fill: rgb(219, 219, 219); transform-origin: 88.075px 226.272px;" id="el2n2knqhti4h" class="animable"></path><rect x="63.28" y="170.9" width="1" height="38.01" style="fill: rgb(199, 199, 199); transform-origin: 63.78px 189.905px;" id="el6pfhoaort2x" class="animable"></rect><path d="M63.78,171.4a3.17,3.17,0,1,1,3.16-3.16A3.17,3.17,0,0,1,63.78,171.4Zm0-5.33a2.17,2.17,0,1,0,2.16,2.17A2.17,2.17,0,0,0,63.78,166.07Z" style="fill: rgb(199, 199, 199); transform-origin: 63.77px 168.23px;" id="elucir5hcii6j" class="animable"></path><rect x="71.85" y="165.57" width="29.53" height="1.33" style="fill: rgb(199, 199, 199); transform-origin: 86.615px 166.235px;" id="ellsqaqnt3jwp" class="animable"></rect><rect x="71.85" y="168.24" width="16.71" height="1.33" style="fill: rgb(199, 199, 199); transform-origin: 80.205px 168.905px;" id="el1uao5psbzj4" class="animable"></rect><rect x="215.53" y="357.45" width="38.01" height="1" style="fill: rgb(199, 199, 199); transform-origin: 234.535px 357.95px;" id="ele50ufyx33h" class="animable"></rect><path d="M256.21,361.11a3.17,3.17,0,1,1,3.16-3.16A3.17,3.17,0,0,1,256.21,361.11Zm0-5.33a2.17,2.17,0,1,0,2.16,2.17A2.17,2.17,0,0,0,256.21,355.78Z" style="fill: rgb(199, 199, 199); transform-origin: 256.2px 357.94px;" id="el98imojhj2pi" class="animable"></path><rect x="265.87" y="355.95" width="29.53" height="1.33" style="fill: rgb(199, 199, 199); transform-origin: 280.635px 356.615px;" id="elxr7egtbryag" class="animable"></rect><rect x="265.87" y="358.61" width="16.71" height="1.33" style="fill: rgb(199, 199, 199); transform-origin: 274.225px 359.275px;" id="elbcrf9vufllg" class="animable"></rect><rect x="311.4" y="289.53" width="88.24" height="122.11" style="fill: rgb(235, 235, 235); transform-origin: 355.52px 350.585px;" id="elrb0r6pyy2ug" class="animable"></rect><rect x="307.13" y="285" width="96.79" height="4.53" style="fill: rgb(219, 219, 219); transform-origin: 355.525px 287.265px;" id="elljg33nzg1h" class="animable"></rect><rect x="403.91" y="285" width="30.44" height="4.53" style="fill: rgb(235, 235, 235); transform-origin: 419.13px 287.265px;" id="elpxl612j3kt8" class="animable"></rect><rect x="399.64" y="289.53" width="29.9" height="122.11" style="fill: rgb(219, 219, 219); transform-origin: 414.59px 350.585px;" id="el3v5yo1j8elc" class="animable"></rect><path d="M390.15,346.06H320.89V306.9h69.26Zm-69-.25H389.9V307.15H321.14Z" style="fill: rgb(199, 199, 199); transform-origin: 355.52px 326.48px;" id="elosr1z40x56" class="animable"></path><rect x="345.86" y="318.36" width="13.48" height="7.75" style="fill: rgb(199, 199, 199); transform-origin: 352.6px 322.235px;" id="eldnbqqrf76q" class="animable"></rect><path d="M363.45,325.64H349.72v-6.83h13.73ZM350,325.39H363.2v-6.33H350Z" style="fill: rgb(199, 199, 199); transform-origin: 356.585px 322.225px;" id="el7ayi5fkbo5c" class="animable"></path><path d="M390.15,395.23H320.89V356.06h69.26Zm-69-.25H389.9V356.31H321.14Z" style="fill: rgb(199, 199, 199); transform-origin: 355.52px 375.645px;" id="elztnfnjluyth" class="animable"></path><rect x="345.86" y="367.52" width="13.48" height="7.75" style="fill: rgb(199, 199, 199); transform-origin: 352.6px 371.395px;" id="el7c2hlbh7vlb" class="animable"></rect><path d="M363.45,374.8H349.72V368h13.73ZM350,374.55H363.2v-6.32H350Z" style="fill: rgb(199, 199, 199); transform-origin: 356.585px 371.4px;" id="eltkq8d3385h" class="animable"></path><polygon points="378.98 285 337.9 285 330.72 255.19 371.8 255.19 378.98 285" style="fill: rgb(166, 166, 166); transform-origin: 354.85px 270.095px;" id="elfmmipo43lsl" class="animable"></polygon><polygon points="323.42 285 364.5 285 371.68 255.19 330.6 255.19 323.42 285" style="fill: rgb(235, 235, 235); transform-origin: 347.55px 270.095px;" id="elwnezt130sm" class="animable"></polygon><polygon points="366.75 259.19 365.75 263.36 365.69 263.61 364.65 267.94 364.59 268.2 363.55 272.52 363.49 272.78 362.45 277.11 362.39 277.37 361.37 281.61 328.35 281.61 329.37 277.37 329.43 277.11 330.47 272.78 330.53 272.52 331.57 268.2 331.63 267.94 332.67 263.61 332.73 263.36 333.73 259.19 366.75 259.19" style="fill: rgb(255, 255, 255); transform-origin: 347.55px 270.4px;" id="elzcboafgz2wm" class="animable"></polygon><polygon points="338.57 259.19 337.57 263.36 337.51 263.61 336.47 267.94 336.41 268.2 335.37 272.52 335.31 272.78 334.27 277.11 334.21 277.37 333.19 281.61 332.93 281.61 333.95 277.37 334.01 277.11 335.05 272.78 335.11 272.52 336.14 268.2 336.21 267.94 337.25 263.61 337.31 263.36 338.31 259.19 338.57 259.19" style="fill: rgb(235, 235, 235); transform-origin: 335.75px 270.4px;" id="el1uqos4paes7" class="animable"></polygon><polygon points="343.27 259.19 342.27 263.36 342.21 263.61 341.17 267.94 341.11 268.2 340.07 272.52 340.01 272.78 338.97 277.11 338.91 277.37 337.9 281.61 337.63 281.61 338.65 277.37 338.71 277.11 339.75 272.78 339.81 272.52 340.85 268.2 340.91 267.94 341.95 263.61 342.01 263.36 343.01 259.19 343.27 259.19" style="fill: rgb(235, 235, 235); transform-origin: 340.45px 270.4px;" id="el6j1wcoa8zuu" class="animable"></polygon><polygon points="347.98 259.19 346.98 263.36 346.92 263.61 345.88 267.94 345.82 268.2 344.78 272.52 344.72 272.78 343.68 277.11 343.62 277.37 342.6 281.61 342.34 281.61 343.36 277.37 343.42 277.11 344.45 272.78 344.52 272.52 345.55 268.2 345.62 267.94 346.65 263.61 346.72 263.36 347.71 259.19 347.98 259.19" style="fill: rgb(235, 235, 235); transform-origin: 345.16px 270.4px;" id="elyd0qr83jxp" class="animable"></polygon><polygon points="352.68 259.19 351.68 263.36 351.62 263.61 350.58 267.94 350.52 268.2 349.48 272.52 349.42 272.78 348.38 277.11 348.32 277.37 347.3 281.61 347.04 281.61 348.06 277.37 348.12 277.11 349.16 272.78 349.22 272.52 350.26 268.2 350.32 267.94 351.36 263.61 351.42 263.36 352.42 259.19 352.68 259.19" style="fill: rgb(235, 235, 235); transform-origin: 349.86px 270.4px;" id="el4xsx3evdz6c" class="animable"></polygon><polygon points="357.39 259.19 356.39 263.36 356.32 263.61 355.29 267.94 355.23 268.2 354.19 272.52 354.13 272.78 353.09 277.11 353.03 277.37 352.01 281.61 351.75 281.61 352.76 277.37 352.83 277.11 353.86 272.78 353.92 272.52 354.96 268.2 355.02 267.94 356.06 263.61 356.12 263.36 357.12 259.19 357.39 259.19" style="fill: rgb(235, 235, 235); transform-origin: 354.57px 270.4px;" id="elajefaxyxwz" class="animable"></polygon><polygon points="362.09 259.19 361.09 263.36 361.03 263.61 359.99 267.94 359.93 268.2 358.89 272.52 358.83 272.78 357.79 277.11 357.73 277.37 356.71 281.61 356.45 281.61 357.47 277.37 357.53 277.11 358.57 272.78 358.63 272.52 359.66 268.2 359.73 267.94 360.77 263.61 360.83 263.36 361.83 259.19 362.09 259.19" style="fill: rgb(235, 235, 235); transform-origin: 359.27px 270.4px;" id="el3mozbrf2jfw" class="animable"></polygon><polygon points="365.75 263.36 365.69 263.61 332.67 263.61 332.73 263.36 365.75 263.36" style="fill: rgb(235, 235, 235); transform-origin: 349.21px 263.485px;" id="elfaocsf4oecd" class="animable"></polygon><polygon points="364.65 267.94 364.59 268.2 331.57 268.2 331.63 267.94 364.65 267.94" style="fill: rgb(235, 235, 235); transform-origin: 348.11px 268.07px;" id="el4h946wnsb9l" class="animable"></polygon><polygon points="363.55 272.52 363.49 272.78 330.47 272.78 330.53 272.52 363.55 272.52" style="fill: rgb(235, 235, 235); transform-origin: 347.01px 272.65px;" id="el5i3nmwwphv6" class="animable"></polygon><polygon points="362.45 277.11 362.39 277.37 329.37 277.37 329.43 277.11 362.45 277.11" style="fill: rgb(235, 235, 235); transform-origin: 345.91px 277.24px;" id="elvjbbovd969" class="animable"></polygon><path d="M331.89,257.23a1.1,1.1,0,0,1-.8-.39,1.86,1.86,0,0,1-.2-1.83c.28-.93,1-1.32,1.49-1.22s.85.49.77,1.39a.25.25,0,0,1-.28.24.26.26,0,0,1-.23-.28c0-.47-.1-.79-.36-.84s-.71.22-.9.86a1.42,1.42,0,0,0,.1,1.34.53.53,0,0,0,.44.21.26.26,0,0,1,.07.51Z" style="fill: rgb(166, 166, 166); transform-origin: 331.949px 255.502px;" id="el356sm4lf6zy" class="animable"></path><path d="M335.05,257.23a1.1,1.1,0,0,1-.79-.39,1.85,1.85,0,0,1-.21-1.83c.28-.93,1-1.32,1.49-1.22s.85.49.78,1.39a.26.26,0,1,1-.52,0c0-.47-.09-.79-.35-.84s-.71.22-.91.86a1.42,1.42,0,0,0,.11,1.34.5.5,0,0,0,.43.21.26.26,0,0,1,.29.22.25.25,0,0,1-.22.29Z" style="fill: rgb(166, 166, 166); transform-origin: 335.114px 255.517px;" id="el1yuqysc3t6l" class="animable"></path><path d="M338.21,257.23a1.1,1.1,0,0,1-.79-.39,1.86,1.86,0,0,1-.2-1.83c.28-.93,1-1.32,1.49-1.22s.85.49.77,1.39a.26.26,0,1,1-.51,0c0-.47-.1-.79-.36-.84s-.71.22-.9.86a1.42,1.42,0,0,0,.1,1.34.52.52,0,0,0,.44.21.26.26,0,0,1,.07.51Z" style="fill: rgb(166, 166, 166); transform-origin: 338.279px 255.517px;" id="elnbztlcwfj1" class="animable"></path><path d="M341.38,257.23a1.1,1.1,0,0,1-.79-.39,1.85,1.85,0,0,1-.21-1.83c.28-.93,1-1.32,1.49-1.22s.85.49.77,1.39a.25.25,0,0,1-.27.24.27.27,0,0,1-.24-.28c0-.47-.09-.79-.36-.84s-.71.22-.9.86a1.42,1.42,0,0,0,.11,1.34.5.5,0,0,0,.43.21.26.26,0,0,1,.07.51Z" style="fill: rgb(166, 166, 166); transform-origin: 341.44px 255.502px;" id="el0eyzm9gkqgk" class="animable"></path><path d="M344.54,257.23a1.1,1.1,0,0,1-.79-.39,1.88,1.88,0,0,1-.21-1.83c.29-.93,1-1.32,1.49-1.22s.86.49.78,1.39a.26.26,0,1,1-.51,0c0-.47-.1-.79-.36-.84s-.71.22-.9.86a1.42,1.42,0,0,0,.1,1.34.52.52,0,0,0,.44.21.26.26,0,0,1,.07.51Z" style="fill: rgb(166, 166, 166); transform-origin: 344.607px 255.517px;" id="els45jdb7e0c" class="animable"></path><path d="M347.71,257.23a1.1,1.1,0,0,1-.79-.39,1.85,1.85,0,0,1-.21-1.83c.28-.93,1-1.32,1.49-1.22s.85.49.77,1.39a.25.25,0,0,1-.27.24.26.26,0,0,1-.24-.28c0-.47-.1-.79-.36-.84s-.71.22-.9.86a1.42,1.42,0,0,0,.11,1.34.5.5,0,0,0,.43.21.26.26,0,0,1,.07.51Z" style="fill: rgb(166, 166, 166); transform-origin: 347.77px 255.502px;" id="elzbdigcgtnr" class="animable"></path><path d="M350.87,257.23a1.1,1.1,0,0,1-.79-.39,1.88,1.88,0,0,1-.21-1.83c.29-.93,1-1.32,1.49-1.22s.85.49.78,1.39a.26.26,0,0,1-.28.24.25.25,0,0,1-.23-.28c0-.47-.1-.79-.36-.84s-.71.22-.9.86a1.42,1.42,0,0,0,.1,1.34.52.52,0,0,0,.44.21.26.26,0,0,1,.29.22.26.26,0,0,1-.22.29Z" style="fill: rgb(166, 166, 166); transform-origin: 350.936px 255.502px;" id="elg0rb4hk2h7l" class="animable"></path><path d="M354,257.23a1.1,1.1,0,0,1-.8-.39A1.86,1.86,0,0,1,353,255c.28-.93,1-1.32,1.49-1.22s.85.49.77,1.39a.25.25,0,0,1-.28.24.26.26,0,0,1-.23-.28c0-.47-.1-.79-.36-.84s-.71.22-.9.86a1.42,1.42,0,0,0,.1,1.34.53.53,0,0,0,.44.21.26.26,0,0,1,.07.51Z" style="fill: rgb(166, 166, 166); transform-origin: 354.058px 255.497px;" id="elxhv6q7dkus" class="animable"></path><path d="M357.2,257.23a1.1,1.1,0,0,1-.79-.39,1.85,1.85,0,0,1-.21-1.83c.28-.93,1-1.32,1.49-1.22s.85.49.78,1.39a.26.26,0,0,1-.52,0c0-.47-.09-.79-.35-.84s-.71.22-.91.86a1.45,1.45,0,0,0,.11,1.34.5.5,0,0,0,.43.21.26.26,0,0,1,.29.22.25.25,0,0,1-.21.29Z" style="fill: rgb(166, 166, 166); transform-origin: 357.264px 255.517px;" id="el75y06hk35il" class="animable"></path><path d="M360.36,257.23a1.1,1.1,0,0,1-.79-.39,1.86,1.86,0,0,1-.2-1.83c.28-.93,1-1.32,1.49-1.22s.85.49.77,1.39a.25.25,0,0,1-.28.24.26.26,0,0,1-.23-.28c0-.47-.1-.79-.36-.84s-.71.22-.9.86a1.42,1.42,0,0,0,.1,1.34.52.52,0,0,0,.44.21.26.26,0,0,1,.07.51Z" style="fill: rgb(166, 166, 166); transform-origin: 360.429px 255.502px;" id="eloau6d0h1epf" class="animable"></path><path d="M363.53,257.23a1.1,1.1,0,0,1-.79-.39,1.85,1.85,0,0,1-.21-1.83c.28-.93,1-1.32,1.49-1.22s.85.49.78,1.39a.26.26,0,0,1-.52,0c0-.47-.09-.79-.36-.84s-.71.22-.9.86a1.42,1.42,0,0,0,.11,1.34.5.5,0,0,0,.43.21.26.26,0,0,1,.07.51Z" style="fill: rgb(166, 166, 166); transform-origin: 363.594px 255.517px;" id="elm03cw17bti" class="animable"></path><path d="M366.69,257.23a1.1,1.1,0,0,1-.79-.39,1.86,1.86,0,0,1-.2-1.83c.28-.93,1-1.32,1.49-1.22s.85.49.77,1.39a.25.25,0,0,1-.28.24.26.26,0,0,1-.23-.28c0-.47-.1-.79-.36-.84s-.71.22-.9.86a1.42,1.42,0,0,0,.1,1.34.52.52,0,0,0,.44.21.26.26,0,0,1,.07.51Z" style="fill: rgb(166, 166, 166); transform-origin: 366.759px 255.502px;" id="el00jctntd40r6l" class="animable"></path><path d="M369.86,257.23a1.1,1.1,0,0,1-.79-.39,1.85,1.85,0,0,1-.21-1.83c.28-.93,1-1.32,1.49-1.22s.85.49.77,1.39a.25.25,0,0,1-.27.24.27.27,0,0,1-.24-.28c0-.47-.1-.79-.36-.84s-.71.22-.9.86a1.42,1.42,0,0,0,.11,1.34.5.5,0,0,0,.43.21.26.26,0,0,1,.07.51Z" style="fill: rgb(166, 166, 166); transform-origin: 369.92px 255.502px;" id="el80hjf2dx20a" class="animable"></path><path d="M118.84,126.54a2.28,2.28,0,0,1,0-2.4c.12-.21.24-.41.35-.62s.22-.42.32-.64a2.31,2.31,0,0,1,2-1.34l3-.09-.3-9.63-3,.1a2.3,2.3,0,0,1-2.07-1.21,11.82,11.82,0,0,0-.76-1.22,2.29,2.29,0,0,1-.15-2.39l1.39-2.6-8.49-4.56-1.39,2.6a2.29,2.29,0,0,1-2.08,1.2,13.58,13.58,0,0,0-1.43,0,2.28,2.28,0,0,1-2.16-1.06l-1.56-2.51-8.18,5.08,1.56,2.52a2.3,2.3,0,0,1,0,2.4c-.13.2-.24.4-.35.61s-.22.42-.32.63a2.3,2.3,0,0,1-2,1.35l-2.95.09.29,9.62,3-.09a2.29,2.29,0,0,1,2.08,1.21,11.82,11.82,0,0,0,.76,1.22,2.29,2.29,0,0,1,.15,2.39l-1.39,2.6,8.49,4.55L105,131.8a2.28,2.28,0,0,1,2.08-1.2,13.85,13.85,0,0,0,1.44,0,2.26,2.26,0,0,1,2.15,1.06l1.56,2.5,8.18-5.07Zm-15.21-2.41a7.89,7.89,0,1,1,10.68-3.23A7.9,7.9,0,0,1,103.63,124.13Z" style="fill: rgb(235, 235, 235); transform-origin: 107.39px 117.145px;" id="elbt85ul61ph8" class="animable"></path><path d="M89.75,85.74A1.61,1.61,0,0,1,89,84.25c0-.17,0-.33,0-.5s0-.33,0-.5a1.6,1.6,0,0,1,.79-1.48l1.79-1-3.37-5.84-1.79,1a1.59,1.59,0,0,1-1.69-.06,9.34,9.34,0,0,0-.87-.5,1.6,1.6,0,0,1-.88-1.43V71.87H76.19v2.06a1.61,1.61,0,0,1-.89,1.43,9.34,9.34,0,0,0-.87.5,1.57,1.57,0,0,1-1.68.06l-1.79-1-3.38,5.84,1.81,1a1.62,1.62,0,0,1,.78,1.48c0,.17,0,.34,0,.5s0,.33,0,.5a1.61,1.61,0,0,1-.79,1.49l-1.8,1L71,92.61l1.79-1a1.61,1.61,0,0,1,1.68.06,9.34,9.34,0,0,0,.87.5,1.61,1.61,0,0,1,.89,1.43v2.06h6.75V93.57a1.6,1.6,0,0,1,.88-1.43,8.36,8.36,0,0,0,.88-.5,1.61,1.61,0,0,1,1.68-.06l1.79,1,3.37-5.84ZM79.57,89.28a5.53,5.53,0,1,1,5.52-5.53A5.53,5.53,0,0,1,79.57,89.28Z" style="fill: rgb(235, 235, 235); transform-origin: 79.58px 83.765px;" id="el274i4ywefbu" class="animable"></path><path d="M430.62,265.64a1.63,1.63,0,0,1-.78-1.49c0-.17,0-.33,0-.5s0-.34,0-.5a1.62,1.62,0,0,1,.78-1.49l1.8-1L429,254.79l-1.79,1a1.61,1.61,0,0,1-1.68-.06,9.34,9.34,0,0,0-.87-.5,1.61,1.61,0,0,1-.89-1.43v-2.06h-6.75v2.06a1.6,1.6,0,0,1-.88,1.43,9.34,9.34,0,0,0-.87.5,1.63,1.63,0,0,1-1.69.06l-1.79-1-3.37,5.84,1.8,1a1.61,1.61,0,0,1,.78,1.48c0,.17,0,.33,0,.5s0,.33,0,.5a1.61,1.61,0,0,1-.78,1.48l-1.8,1,3.37,5.84,1.79-1a1.61,1.61,0,0,1,1.68.06,8.36,8.36,0,0,0,.88.5,1.6,1.6,0,0,1,.88,1.43v2.06h6.75v-2.06a1.61,1.61,0,0,1,.89-1.43,9.34,9.34,0,0,0,.87-.5,1.59,1.59,0,0,1,1.68-.06l1.79,1,3.38-5.84Zm-10.18,3.54a5.53,5.53,0,1,1,5.52-5.53A5.54,5.54,0,0,1,420.44,269.18Z" style="fill: rgb(235, 235, 235); transform-origin: 420.42px 263.61px;" id="eliv3pfngg5u" class="animable"></path></g><g id="freepik--Shadow--inject-23" class="animable" style="transform-origin: 251.765px 454.405px;"><ellipse cx="173.5" cy="457.63" rx="129" ry="18.56" style="fill: rgb(235, 235, 235); transform-origin: 173.5px 457.63px;" id="elrgbybxhwvma" class="animable"></ellipse><ellipse cx="402.98" cy="443.35" rx="56.05" ry="10.73" style="fill: rgb(235, 235, 235); transform-origin: 402.98px 443.35px;" id="el8mqpbb67sxp" class="animable"></ellipse></g><g id="freepik--Floor--inject-23" class="animable" style="transform-origin: 250px 411.795px;"><polygon points="69.88 411.79 114.91 411.55 159.94 411.46 250 411.3 340.06 411.46 385.09 411.55 430.12 411.79 385.09 412.04 340.06 412.13 250 412.29 159.94 412.13 114.91 412.04 69.88 411.79" style="fill: rgb(38, 50, 56); transform-origin: 250px 411.795px;" id="elcowcsfybri" class="animable"></polygon></g><g id="freepik--Board--inject-23" class="animable" style="transform-origin: 276.315px 146.24px;"><rect x="143.49" y="52.13" width="265.65" height="196.02" style="fill: rgb(235, 235, 235); transform-origin: 276.315px 150.14px;" id="eljgq395zxlrb" class="animable"></rect><rect x="411.07" y="51.59" width="1" height="140.3" style="fill: rgb(38, 50, 56); transform-origin: 411.57px 121.74px;" id="el248flw4ks8w" class="animable"></rect><polygon points="413.37 196.61 409.77 196.61 410.67 191.44 412.47 191.44 413.37 196.61" style="fill: rgb(38, 50, 56); transform-origin: 411.57px 194.025px;" id="el8u586sbnx44" class="animable"></polygon><rect x="414.72" y="51.59" width="1" height="113.57" style="fill: rgb(38, 50, 56); transform-origin: 415.22px 108.375px;" id="eltpf6zch4v5q" class="animable"></rect><polygon points="417.02 168.96 413.42 168.96 414.32 163.79 416.12 163.79 417.02 168.96" style="fill: rgb(38, 50, 56); transform-origin: 415.22px 166.375px;" id="elhohb2ovugy4" class="animable"></polygon><rect x="133.76" y="44.33" width="285.11" height="14.53" style="fill: rgb(199, 199, 199); transform-origin: 276.315px 51.595px;" id="elx0g4uayk8i" class="animable"></rect><polygon points="172.17 100.48 250.71 100.36 329.26 100.48 250.71 100.61 172.17 100.48" style="fill: rgb(199, 199, 199); transform-origin: 250.715px 100.485px;" id="el69aqgz8k7i9" class="animable"></polygon><polygon points="172.17 106.89 250.71 106.77 329.26 106.89 250.71 107.02 172.17 106.89" style="fill: rgb(199, 199, 199); transform-origin: 250.715px 106.895px;" id="elq6m7jp4mqul" class="animable"></polygon><polygon points="172.17 113.3 250.71 113.17 329.26 113.3 250.71 113.42 172.17 113.3" style="fill: rgb(199, 199, 199); transform-origin: 250.715px 113.295px;" id="elrzvxpyfvm4" class="animable"></polygon><polygon points="172.17 119.7 250.71 119.58 329.26 119.7 250.71 119.83 172.17 119.7" style="fill: rgb(199, 199, 199); transform-origin: 250.715px 119.705px;" id="elyqiymza84n" class="animable"></polygon><polygon points="172.17 126.11 250.71 125.98 329.26 126.11 250.71 126.23 172.17 126.11" style="fill: rgb(199, 199, 199); transform-origin: 250.715px 126.105px;" id="eldier9f6pp69" class="animable"></polygon><polygon points="172.17 132.51 250.71 132.39 329.26 132.51 250.71 132.64 172.17 132.51" style="fill: rgb(199, 199, 199); transform-origin: 250.715px 132.515px;" id="elrymg9vh4izm" class="animable"></polygon><polygon points="172.17 138.92 250.71 138.79 329.26 138.92 250.71 139.04 172.17 138.92" style="fill: rgb(199, 199, 199); transform-origin: 250.715px 138.915px;" id="el75dxy21lvni" class="animable"></polygon><polygon points="172.17 145.32 250.71 145.2 329.26 145.32 250.71 145.45 172.17 145.32" style="fill: rgb(199, 199, 199); transform-origin: 250.715px 145.325px;" id="el66ozajpfd9y" class="animable"></polygon><polygon points="172.17 151.73 250.71 151.61 329.26 151.73 250.71 151.85 172.17 151.73" style="fill: rgb(199, 199, 199); transform-origin: 250.715px 151.73px;" id="elnmvuatf614" class="animable"></polygon><polygon points="172.17 158.14 250.71 158.01 329.26 158.14 250.71 158.26 172.17 158.14" style="fill: rgb(199, 199, 199); transform-origin: 250.715px 158.135px;" id="eloaunmrbw24" class="animable"></polygon><polygon points="172.17 164.54 250.71 164.42 329.26 164.54 250.71 164.67 172.17 164.54" style="fill: rgb(199, 199, 199); transform-origin: 250.715px 164.545px;" id="el0vk84xnehbo" class="animable"></polygon><polygon points="172.17 170.95 250.71 170.82 329.26 170.95 250.71 171.07 172.17 170.95" style="fill: rgb(199, 199, 199); transform-origin: 250.715px 170.945px;" id="el3ey21x496yf" class="animable"></polygon><polygon points="172.17 177.35 250.71 177.23 329.26 177.35 250.71 177.48 172.17 177.35" style="fill: rgb(199, 199, 199); transform-origin: 250.715px 177.355px;" id="elvb2wfpiajf8" class="animable"></polygon><polygon points="172.17 183.76 250.71 183.63 329.26 183.76 250.71 183.88 172.17 183.76" style="fill: rgb(199, 199, 199); transform-origin: 250.715px 183.755px;" id="elle6hguu4xo" class="animable"></polygon><polygon points="172.17 190.16 250.71 190.04 329.26 190.16 250.71 190.29 172.17 190.16" style="fill: rgb(199, 199, 199); transform-origin: 250.715px 190.165px;" id="el01fzrla9xm6c" class="animable"></polygon><rect x="188.78" y="145.32" width="11.91" height="52.31" style="fill: rgb(130, 87, 229); transform-origin: 194.735px 171.475px;" id="el9lkriermxll" class="animable"></rect><rect x="210.88" y="123.2" width="11.91" height="74.43" style="fill: rgb(255, 255, 255); transform-origin: 216.835px 160.415px;" id="el51ffhapxn17" class="animable"></rect><rect x="232.98" y="139.14" width="11.91" height="58.49" style="fill: rgb(130, 87, 229); transform-origin: 238.935px 168.385px;" id="elt3b6m6hoj58" class="animable"></rect><rect x="255.08" y="119.7" width="11.91" height="77.93" style="fill: rgb(255, 255, 255); transform-origin: 261.035px 158.665px;" id="el4hoiiuam9z3" class="animable"></rect><rect x="277.17" y="130.15" width="11.91" height="67.48" style="fill: rgb(130, 87, 229); transform-origin: 283.125px 163.89px;" id="ele5u1dqabti9" class="animable"></rect><rect x="299.27" y="168.39" width="11.91" height="29.25" style="fill: rgb(255, 255, 255); transform-origin: 305.225px 183.015px;" id="eldrolz4hlr6s" class="animable"></rect><path d="M176.43,96l.2,25.41c.08,8.47.07,16.94.1,25.41l.13,50.82-.43-.43c12.74,0,25.47-.1,38.21,0l38.2.1,38.21.1,38.21.26-38.21.27-38.21.1-38.2.1c-12.74.06-25.47,0-38.21,0H176v-.43l.13-50.82c0-8.47,0-16.94.11-25.41Z" style="fill: rgb(199, 199, 199); transform-origin: 252.63px 147.083px;" id="el7vi21t4krm" class="animable"></path><rect x="188.78" y="203" width="11.91" height="1.08" style="fill: rgb(199, 199, 199); transform-origin: 194.735px 203.54px;" id="elnr06kn9foyh" class="animable"></rect><rect x="210.88" y="203" width="11.91" height="1.08" style="fill: rgb(199, 199, 199); transform-origin: 216.835px 203.54px;" id="elivfqyya27w" class="animable"></rect><rect x="232.98" y="203" width="11.91" height="1.08" style="fill: rgb(199, 199, 199); transform-origin: 238.935px 203.54px;" id="el75uu4zaomlv" class="animable"></rect><rect x="255.08" y="203" width="11.91" height="1.08" style="fill: rgb(199, 199, 199); transform-origin: 261.035px 203.54px;" id="elvuki8of53pn" class="animable"></rect><rect x="277.17" y="203" width="11.91" height="1.08" style="fill: rgb(199, 199, 199); transform-origin: 283.125px 203.54px;" id="eliqvrrflnfw8" class="animable"></rect><rect x="299.27" y="203" width="11.91" height="1.08" style="fill: rgb(199, 199, 199); transform-origin: 305.225px 203.54px;" id="el08jh5xln9tsi" class="animable"></rect><path d="M182,83.28h-3.88l-.75,2a.3.3,0,0,1-.28.19H177a.31.31,0,0,1-.17-.39l3-7.89a.34.34,0,0,1,.3-.19.31.31,0,0,1,.29.19l2.95,7.89a.31.31,0,0,1-.15.39h-.11a.3.3,0,0,1-.28-.19Zm-3.66-.6h3.44l-1.71-4.57Z" style="fill: rgb(38, 50, 56); transform-origin: 180.101px 81.235px;" id="elo8wf6b5afw8" class="animable"></path><path d="M185.83,78.22v7a.29.29,0,1,1-.58,0V77.38a.29.29,0,0,1,.11-.33.3.3,0,0,1,.41.08l5.16,7.15V77.34a.3.3,0,0,1,.29-.29.31.31,0,0,1,.31.29v7.85a.3.3,0,0,1-.31.29.28.28,0,0,1-.23-.11s0,0-.05-.05Z" style="fill: rgb(38, 50, 56); transform-origin: 188.383px 81.2557px;" id="elscegmmkks1e" class="animable"></path><path d="M194.81,78.22v7a.29.29,0,0,1-.58,0V77.38a.29.29,0,0,1,.11-.33.3.3,0,0,1,.41.08l5.16,7.15V77.34a.3.3,0,0,1,.59,0v7.85a.29.29,0,0,1-.3.29.28.28,0,0,1-.23-.11s0,0-.05-.05Z" style="fill: rgb(38, 50, 56); transform-origin: 197.358px 81.2557px;" id="el9dy07p3a40c" class="animable"></path><path d="M203,77.26a.3.3,0,0,1,.59,0V82a2.85,2.85,0,0,0,5.69,0V77.26a.3.3,0,0,1,.3-.29.29.29,0,0,1,.3.29V82A3.44,3.44,0,1,1,203,82Z" style="fill: rgb(38, 50, 56); transform-origin: 206.44px 81.2049px;" id="el2bwactnpw7t" class="animable"></path><path d="M216.92,83.28H213l-.76,2a.29.29,0,0,1-.28.19h-.11a.32.32,0,0,1-.17-.39l3-7.89A.33.33,0,0,1,215,77a.3.3,0,0,1,.29.19l3,7.89a.3.3,0,0,1-.16.39H218a.31.31,0,0,1-.28-.19Zm-3.66-.6h3.44L215,78.11Z" style="fill: rgb(38, 50, 56); transform-origin: 214.988px 81.2347px;" id="el6i6elni06em" class="animable"></path><path d="M220.44,85.48h0a.29.29,0,0,1-.29-.29V77.26a.3.3,0,0,1,.59,0v7.62h4.08a.3.3,0,0,1,.3.31.29.29,0,0,1-.3.29Z" style="fill: rgb(38, 50, 56); transform-origin: 222.635px 81.2474px;" id="elo2zl7vfnkwe" class="animable"></path><path d="M234.85,83.56a1.55,1.55,0,0,0-.69-1.29,2.83,2.83,0,0,0-1-.43l-.06,0H231v3.37a.3.3,0,0,1-.59,0V77.26a.29.29,0,0,1,.27-.29h2.43a2.43,2.43,0,0,1,1,4.63l.12.06a2.16,2.16,0,0,1,1.14,1.9,3.23,3.23,0,0,0,.11,1,.46.46,0,0,0,.12.21.3.3,0,0,1,.14.58.73.73,0,0,1-.15,0h0a.68.68,0,0,1-.55-.39A3.09,3.09,0,0,1,234.85,83.56Zm-1.7-6H231v3.68h2.16a1.84,1.84,0,0,0,0-3.68Z" style="fill: rgb(38, 50, 56); transform-origin: 233.175px 81.2127px;" id="el4v60s05z2s8" class="animable"></path><path d="M238.22,77.26a.3.3,0,0,1,.29-.29h4.38a.3.3,0,0,1,0,.59h-4.07v3.37h3.56a.3.3,0,0,1,.29.31.3.3,0,0,1-.29.29h-3.56v3.35h4.07a.3.3,0,0,1,.29.31.28.28,0,0,1-.29.29h-4.4a.29.29,0,0,1-.27-.29Z" style="fill: rgb(38, 50, 56); transform-origin: 240.7px 81.2251px;" id="elgp71s8g9igp" class="animable"></path><path d="M245.44,77.26a.29.29,0,0,1,.29-.29h2.41a2.43,2.43,0,0,1,0,4.85l-2.11,0v3.35a.3.3,0,0,1-.59,0Zm2.7,4a1.85,1.85,0,0,0,0-3.69H246v3.69Z" style="fill: rgb(38, 50, 56); transform-origin: 247.927px 81.1927px;" id="elyi2ip0dtlbn" class="animable"></path><path d="M256.26,76.85a4.32,4.32,0,1,1-4.11,4.31A4.19,4.19,0,0,1,256.26,76.85Zm0,8a3.72,3.72,0,1,0-3.51-3.72A3.62,3.62,0,0,0,256.26,84.88Z" style="fill: rgb(38, 50, 56); transform-origin: 256.469px 81.1649px;" id="el82sl7ho5kve" class="animable"></path><path d="M267.1,83.56a1.53,1.53,0,0,0-.69-1.29,2.83,2.83,0,0,0-1-.43l-.06,0H263.3v3.37a.3.3,0,0,1-.31.29.29.29,0,0,1-.29-.29V77.26A.29.29,0,0,1,263,77h2.43a2.43,2.43,0,0,1,1,4.63.67.67,0,0,0,.12.06,2.17,2.17,0,0,1,1.15,1.9,3.23,3.23,0,0,0,.11,1,.38.38,0,0,0,.12.21.32.32,0,0,1,.33.2.33.33,0,0,1-.2.38l-.14,0h0a.68.68,0,0,1-.55-.39A3.09,3.09,0,0,1,267.1,83.56Zm-1.7-6h-2.1v3.68h2.15a1.84,1.84,0,0,0-.05-3.68Z" style="fill: rgb(38, 50, 56); transform-origin: 265.484px 81.25px;" id="el10bb8n88b6c" class="animable"></path><path d="M272.43,77.56h-2.56a.3.3,0,0,1,0-.59h5.71a.3.3,0,0,1,0,.59H273v7.63a.3.3,0,0,1-.59,0Z" style="fill: rgb(38, 50, 56); transform-origin: 272.725px 81.2027px;" id="elsojaog5z87" class="animable"></path><path d="M345.69,85l4-3.59a2.23,2.23,0,0,0,.73-1.63,2.15,2.15,0,0,0-.57-1.46,2.19,2.19,0,0,0-1.62-.72,2.24,2.24,0,0,0-1.48.56l-.42.38a.28.28,0,0,1-.41,0,.29.29,0,0,1,0-.42l.42-.38a2.8,2.8,0,0,1,1.88-.72A2.79,2.79,0,0,1,351,79.74a2.8,2.8,0,0,1-.91,2.07l-3.4,3.07h4a.3.3,0,0,1,.29.31.29.29,0,0,1-.29.29H345.9a.29.29,0,0,1-.22-.08A.32.32,0,0,1,345.69,85Z" style="fill: rgb(38, 50, 56); transform-origin: 348.307px 81.2503px;" id="elnpchu8qk2ur" class="animable"></path><path d="M353,81.22a5.48,5.48,0,0,1,.82-3A2.64,2.64,0,0,1,356,77a2.67,2.67,0,0,1,2.13,1.27,5.57,5.57,0,0,1,.82,3,5.46,5.46,0,0,1-.82,3A2.64,2.64,0,0,1,356,85.48a2.62,2.62,0,0,1-2.13-1.29A5.37,5.37,0,0,1,353,81.22Zm.6,0a4.79,4.79,0,0,0,.72,2.64,1.81,1.81,0,0,0,3.26,0,5.12,5.12,0,0,0,0-5.27,1.8,1.8,0,0,0-3.26,0A4.78,4.78,0,0,0,353.6,81.22Z" style="fill: rgb(38, 50, 56); transform-origin: 355.975px 81.24px;" id="el9ufl43qenr" class="animable"></path><path d="M361.39,85l4-3.59a2.19,2.19,0,0,0,.73-1.63,2.15,2.15,0,0,0-.57-1.46,2.18,2.18,0,0,0-1.62-.72,2.26,2.26,0,0,0-1.48.56l-.41.38a.29.29,0,0,1-.42,0,.28.28,0,0,1,0-.42l.41-.38A2.82,2.82,0,0,1,363.9,77a2.79,2.79,0,0,1,2.78,2.77,2.84,2.84,0,0,1-.91,2.07l-3.41,3.07h4a.31.31,0,0,1,.29.31.3.3,0,0,1-.29.29h-4.8a.25.25,0,0,1-.21-.08A.32.32,0,0,1,361.39,85Z" style="fill: rgb(38, 50, 56); transform-origin: 363.983px 81.2556px;" id="ela3eexapnrf" class="animable"></path><path d="M368.7,81.22a5.48,5.48,0,0,1,.81-3,2.42,2.42,0,0,1,4.26,0,5.57,5.57,0,0,1,.83,3,5.46,5.46,0,0,1-.83,3,2.4,2.4,0,0,1-4.26,0A5.37,5.37,0,0,1,368.7,81.22Zm.59,0a4.79,4.79,0,0,0,.72,2.64,1.81,1.81,0,0,0,3.26,0,5.12,5.12,0,0,0,0-5.27,1.8,1.8,0,0,0-3.26,0A4.78,4.78,0,0,0,369.29,81.22Z" style="fill: rgb(38, 50, 56); transform-origin: 371.649px 81.2314px;" id="el1405vp8vrmj" class="animable"></path><rect x="221.68" y="220.54" width="109.29" height="2.42" style="fill: rgb(199, 199, 199); transform-origin: 276.325px 221.75px;" id="elh2wg9hqy1il" class="animable"></rect><rect x="240.36" y="225.6" width="71.91" height="2.42" style="fill: rgb(199, 199, 199); transform-origin: 276.315px 226.81px;" id="elztwdkzbpxi" class="animable"></rect><rect x="354.5" y="100.48" width="28.18" height="2.42" style="fill: rgb(199, 199, 199); transform-origin: 368.59px 101.69px;" id="el83u6xqvlss3" class="animable"></rect><rect x="354.5" y="105.54" width="38.07" height="2.42" style="fill: rgb(199, 199, 199); transform-origin: 373.535px 106.75px;" id="els7zxxc8il0q" class="animable"></rect><rect x="354.5" y="110.6" width="20.2" height="2.42" style="fill: rgb(199, 199, 199); transform-origin: 364.6px 111.81px;" id="el6oqcwokck4s" class="animable"></rect><rect x="342.34" y="100.48" width="5.88" height="5.88" style="fill: rgb(130, 87, 229); transform-origin: 345.28px 103.42px;" id="elsv4d3zprpaa" class="animable"></rect><rect x="354.5" y="215.48" width="31.89" height="2.42" style="fill: rgb(199, 199, 199); transform-origin: 370.445px 216.69px;" id="elygzt7rws7yo" class="animable"></rect><rect x="354.5" y="220.54" width="27.73" height="2.42" style="fill: rgb(199, 199, 199); transform-origin: 368.365px 221.75px;" id="el9nxsotokvvr" class="animable"></rect><rect x="354.5" y="225.6" width="35.15" height="2.42" style="fill: rgb(199, 199, 199); transform-origin: 372.075px 226.81px;" id="ellvjrm5y5yo8" class="animable"></rect><rect x="342.34" y="215.48" width="5.88" height="5.88" style="fill: rgb(255, 255, 255); transform-origin: 345.28px 218.42px;" id="elehu2q4eaqel" class="animable"></rect><rect x="354.5" y="128.8" width="33.49" height="2.42" style="fill: rgb(199, 199, 199); transform-origin: 371.245px 130.01px;" id="elbvymhtsj90b" class="animable"></rect><rect x="354.5" y="133.86" width="26.5" height="2.42" style="fill: rgb(199, 199, 199); transform-origin: 367.75px 135.07px;" id="eli6il9jcl06i" class="animable"></rect><rect x="354.5" y="138.92" width="38.07" height="2.42" style="fill: rgb(199, 199, 199); transform-origin: 373.535px 140.13px;" id="el2gil523jtin" class="animable"></rect><rect x="342.34" y="128.8" width="5.88" height="5.88" style="fill: rgb(255, 255, 255); transform-origin: 345.28px 131.74px;" id="el1ryrtmrurhq" class="animable"></rect><rect x="354.5" y="193.87" width="19.04" height="2.42" style="fill: rgb(199, 199, 199); transform-origin: 364.02px 195.08px;" id="el3yyi61mhplg" class="animable"></rect><rect x="354.5" y="198.93" width="29.64" height="2.42" style="fill: rgb(199, 199, 199); transform-origin: 369.32px 200.14px;" id="elwk02cafg4xm" class="animable"></rect><rect x="354.5" y="203.99" width="24.47" height="2.42" style="fill: rgb(199, 199, 199); transform-origin: 366.735px 205.2px;" id="elfih6gj0sx26" class="animable"></rect><rect x="342.34" y="193.87" width="5.88" height="5.88" style="fill: rgb(130, 87, 229); transform-origin: 345.28px 196.81px;" id="elv9umk18etbo" class="animable"></rect><path d="M373.54,169.34a14.34,14.34,0,0,1-20.17,13.1l5.83-13.1Z" style="fill: rgb(255, 255, 255); transform-origin: 363.455px 176.509px;" id="elhhy5knf82fc" class="animable"></path><path d="M371,166H356.68l-5.83,13.1h0q-.39-.16-.75-.36c-.29-.15-.59-.31-.87-.48l-.43-.28a12,12,0,0,1-1.55-1.19,7.21,7.21,0,0,1-.65-.59c-.18-.18-.36-.36-.53-.55l-.23-.27-.59-.72-.05-.07c-.18-.26-.36-.51-.53-.77s-.36-.58-.53-.88a11.48,11.48,0,0,1-.82-1.78,1.28,1.28,0,0,1-.09-.22,14.13,14.13,0,0,1-.51-1.68,14.88,14.88,0,0,1-.3-1.89c0-.2,0-.4-.05-.6s0-.51,0-.76a14.65,14.65,0,0,1,.45-3.59,14.38,14.38,0,0,1,11-10.46,14.55,14.55,0,0,1,5.78,0,14.35,14.35,0,0,1,11.15,11.15A14.55,14.55,0,0,1,371,166Z" style="fill: rgb(255, 255, 255); transform-origin: 356.675px 165.385px;" id="els7y54gm4waf" class="animable"></path><path d="M371,166H356.68l-5.83,13.1h0q-.39-.16-.75-.36c-.29-.15-.59-.31-.87-.48l-.43-.28a12,12,0,0,1-1.55-1.19,7.21,7.21,0,0,1-.65-.59c-.18-.18-.36-.36-.53-.55l-.23-.27-.59-.72-.05-.07c-.18-.26-.36-.51-.53-.77s-.36-.58-.53-.88a13,13,0,0,1-.82-1.78,1.28,1.28,0,0,1-.09-.22,14.13,14.13,0,0,1-.51-1.68,14.88,14.88,0,0,1-.3-1.89c0-.2,0-.4-.05-.6s0-.51,0-.76a14.36,14.36,0,0,1,17.23-14A14.37,14.37,0,0,1,371,166Z" style="fill: rgb(130, 87, 229); transform-origin: 356.674px 165.41px;" id="elq1xiesbvpf" class="animable"></path></g><g id="freepik--Character--inject-23" class="animable" style="transform-origin: 173.176px 279.018px;"><path d="M210.82,461.64c-2.29.74-67.66-.11-70.13-1.72-.95-.6-1.38-10.13-1.57-21.66v-.37c-.05-2.37-.08-4.82-.08-7.3,0-.34,0-.68,0-1-.1-16.65.17-33.92.17-33.92l43.73.44-1.32,33.6-.05,1.33-.26,7,0,.72s24.88,11.51,27.41,13.57S213.11,460.91,210.82,461.64Z" style="fill: rgb(235, 148, 129); transform-origin: 175.438px 428.79px;" id="el2bgivcclcnb" class="animable"></path><path d="M210.82,461.64c-2.29.74-67.66-.11-70.13-1.72-.95-.6-1.38-10.13-1.57-21.66v-.37c-.05-2.37-.08-4.82-.08-7.3,0-.34,0-.68,0-1l42.58.12-.05,1.33-.26,7,0,.72s24.88,11.51,27.41,13.57S213.11,460.91,210.82,461.64Z" style="fill: rgb(235, 235, 235); transform-origin: 175.449px 445.75px;" id="elz0bb3molt79" class="animable"></path><path d="M210.82,461.64c-1.42.46-26.74.31-46.57-.25-12.38-.34-22.61-.85-23.56-1.47s-1.37-9.86-1.56-21.18c0-.16,0-.32,0-.48s0-.25,0-.37l42.18.08,0,.72s24.88,11.51,27.4,13.57S213.11,460.91,210.82,461.64Z" style="fill: rgb(69, 90, 100); transform-origin: 175.492px 449.901px;" id="eltj2qrujon5d" class="animable"></path><path d="M210.11,459.1c-11-.42-55.48-1.05-66.4-.62-.09,0-.09.07,0,.07,10.91.65,55.38.92,66.4.73C210.34,459.27,210.35,459.1,210.11,459.1Z" style="fill: rgb(38, 50, 56); transform-origin: 176.964px 458.838px;" id="elkvgn6jl5zmd" class="animable"></path><path d="M186,438.15c-4.33-.86-9.64-.27-13,2.78-.13.12,0,.3.18.26A60.42,60.42,0,0,1,186,438.7.28.28,0,0,0,186,438.15Z" style="fill: rgb(38, 50, 56); transform-origin: 179.587px 439.493px;" id="elh2ga7k1l1bm" class="animable"></path><path d="M189.1,440.08c-4.33-.87-9.64-.27-13,2.78-.13.11,0,.3.19.25a61,61,0,0,1,12.78-2.48A.28.28,0,0,0,189.1,440.08Z" style="fill: rgb(38, 50, 56); transform-origin: 182.681px 441.417px;" id="els8z2638p79" class="animable"></path><path d="M192.2,442c-4.32-.87-9.64-.27-13,2.77-.13.12,0,.3.18.26a61.06,61.06,0,0,1,12.79-2.49A.27.27,0,0,0,192.2,442Z" style="fill: rgb(38, 50, 56); transform-origin: 185.8px 443.336px;" id="elx86w6hwjuka" class="animable"></path><path d="M191.75,428.77c-1.67-2.37-4.86-1.36-6.69.14a23.16,23.16,0,0,0-6.81,9.85.11.11,0,0,0,.1.15c0,.33.3.69.68.55,3.6-1.28,7.6-2.2,10.7-4.54C191.54,433.55,193.33,431,191.75,428.77Zm-7.66,7.64c-1.76.67-3.53,1.25-5.26,2a66.75,66.75,0,0,1,4.1-5.66,25.78,25.78,0,0,1,2.33-2.46c1.3-1.15,6.44-3.59,5.62,1.16C190.42,434.06,186.18,435.61,184.09,436.41Z" style="fill: rgb(38, 50, 56); transform-origin: 185.301px 433.424px;" id="el75xy9d8okd9" class="animable"></path><path d="M167.25,437.48c3.55,1.57,7.66,1.55,11.46,2,.39.05.59-.36.53-.69a.11.11,0,0,0,.06-.17,23.2,23.2,0,0,0-8.89-8c-2.13-1-5.46-1.29-6.55,1.4S165.17,436.56,167.25,437.48Zm-1.92-3.12c-1.9-4.43,3.67-3.24,5.2-2.42a24.14,24.14,0,0,1,2.83,1.85c1.9,1.39,3.56,3,5.3,4.57-1.85-.32-3.72-.48-5.58-.73C170.86,437.34,166.38,436.81,165.33,434.36Z" style="fill: rgb(38, 50, 56); transform-origin: 171.454px 434.694px;" id="elusk00dkm7wi" class="animable"></path><path d="M164.25,461.39c-12.38-.34-22.61-.85-23.56-1.47s-1.37-9.86-1.56-21.18C144.21,443.27,156.82,454.52,164.25,461.39Z" style="fill: rgb(38, 50, 56); transform-origin: 151.69px 450.065px;" id="elw2pjoizpgt" class="animable"></path><path d="M125.78,207.35s9.82,110.46,11.42,118.89c.37,1.92.6,12.36.75,25.78.34,29.28.13,82.09.13,82.09h46.08s-1.36-91.5-3.4-108.34-15.08-118.42-15.08-118.42Z" style="fill: rgb(130, 87, 229); transform-origin: 154.97px 320.73px;" id="el93j9nzhrbk4" class="animable"></path><path d="M182.08,426.08c-7.19-.15-5.12-.21-12.31-.27-3.52,0-26.65-.24-29.94.3-.07,0-.07.14,0,.15,3.29.55,26.42.34,29.94.31,7.19-.07,5.12-.13,12.31-.28A.11.11,0,1,0,182.08,426.08Z" style="fill: rgb(38, 50, 56); transform-origin: 161px 426.196px;" id="elmroj5lwbnj" class="animable"></path><path d="M146.84,373.78l-.15-20c-.05-6.48,0-13-.35-19.43-.62-13.09-3.28-26-5.17-38.91s-3.46-26-4.89-39c-1.6-14.6-3-29.22-4.52-43.83,0-.09-.16-.09-.15,0,2.17,26.08,4.59,52.16,8.2,78.09q1.35,9.68,2.95,19.31c1.07,6.51,2.14,13,2.66,19.59s.58,12.9.65,19.35q.09,10,.19,20c.15,14.83.29,37.67.44,52.51,0,.28.44.27.44,0C147,408.24,146.94,387,146.84,373.78Z" style="fill: rgb(38, 50, 56); transform-origin: 139.375px 317.104px;" id="el0wmuhep5nnoa" class="animable"></path><path d="M116.07,207.35S135.6,317.81,137.2,326.24c.37,1.92.6,12.36.75,25.78v0l22-144.71Z" style="fill: rgb(38, 50, 56); transform-origin: 138.01px 279.665px;" id="el0rgdnq4k1f6" class="animable"></path><path d="M157.31,465.54c-2.34.57-67.49-4.9-69.83-6.69-.9-.66-.66-10.2,0-21.72,0-.12,0-.24,0-.36.12-2.37.27-4.82.44-7.29l.06-1c1.09-16.61,2.57-33.82,2.57-33.82l43.59,3.54-3.69,33.41-.15,1.33-.75,6.91-.08.72s24,13.25,26.38,15.48S159.65,465,157.31,465.54Z" style="fill: rgb(235, 148, 129); transform-origin: 122.699px 430.121px;" id="el6sro0wmzic6" class="animable"></path><path d="M157.31,465.54c-2.34.57-67.49-4.9-69.83-6.69-.9-.66-.66-10.2,0-21.72,0-.12,0-.24,0-.36.12-2.37.27-4.82.44-7.29l.06-1,42.47,3.13-.15,1.33-.75,6.91-.08.72s24,13.25,26.38,15.48S159.65,465,157.31,465.54Z" style="fill: rgb(235, 235, 235); transform-origin: 122.699px 447.031px;" id="elmui571l6krr" class="animable"></path><path d="M157.31,465.54c-2.34.57-67.49-4.9-69.83-6.69-.9-.66-.66-10.2,0-21.72,0-.12,0-.24,0-.36l42.07,3.06-.08.72s24,13.25,26.38,15.48S159.65,465,157.31,465.54Z" style="fill: rgb(69, 90, 100); transform-origin: 122.699px 451.176px;" id="eligawudxxsq" class="animable"></path><path d="M156.79,463c-11-1.19-55.28-5-66.2-5.32-.09,0-.09.06,0,.07,10.84,1.42,55.18,4.84,66.19,5.43C157,463.14,157,463,156.79,463Z" style="fill: rgb(38, 50, 56); transform-origin: 123.734px 460.43px;" id="eloi8rwul2ux" class="animable"></path><path d="M134.21,440.35c-4.26-1.17-9.6-1-13.16,1.85-.14.11,0,.3.16.27a61.14,61.14,0,0,1,12.93-1.58A.28.28,0,0,0,134.21,440.35Z" style="fill: rgb(38, 50, 56); transform-origin: 127.691px 441.071px;" id="elsd5hfc86us" class="animable"></path><path d="M137.17,442.49c-4.26-1.17-9.6-.95-13.16,1.85-.14.11,0,.3.16.27A61.8,61.8,0,0,1,137.1,443,.28.28,0,0,0,137.17,442.49Z" style="fill: rgb(38, 50, 56); transform-origin: 130.629px 443.218px;" id="elcogdntciko8" class="animable"></path><path d="M140.13,444.63c-4.25-1.17-9.6-.95-13.16,1.85-.13.11,0,.31.17.27a61,61,0,0,1,12.93-1.57A.28.28,0,0,0,140.13,444.63Z" style="fill: rgb(38, 50, 56); transform-origin: 133.627px 445.359px;" id="elydln48vi40p" class="animable"></path><path d="M140.62,431.39c-1.5-2.48-4.75-1.69-6.69-.33a23.2,23.2,0,0,0-7.48,9.34.12.12,0,0,0,.09.17c0,.33.25.7.63.59,3.68-1,7.74-1.65,11-3.77C140.07,436.15,142,433.74,140.62,431.39Zm-8.19,7.08c-1.8.55-3.61,1-5.39,1.62a69.72,69.72,0,0,1,4.5-5.36,23.37,23.37,0,0,1,2.49-2.28c1.39-1.06,6.69-3.13,5.53,1.55C138.92,436.58,134.57,437.82,132.43,438.47Z" style="fill: rgb(38, 50, 56); transform-origin: 133.763px 435.48px;" id="el1mrimko2rze" class="animable"></path><path d="M115.56,438.35c3.43,1.82,7.53,2.09,11.29,2.77.39.07.62-.32.58-.65a.12.12,0,0,0,.07-.17,23.22,23.22,0,0,0-8.3-8.63c-2-1.18-5.35-1.67-6.63.94C111.37,435.07,113.55,437.29,115.56,438.35Zm-1.69-3.24c-1.58-4.56,3.88-3,5.36-2.05a25.45,25.45,0,0,1,2.69,2.05,67.85,67.85,0,0,1,5,4.93c-1.83-.45-3.67-.74-5.51-1.12C119.18,438.46,114.74,437.62,113.87,435.11Z" style="fill: rgb(38, 50, 56); transform-origin: 119.87px 435.921px;" id="elkd0tkeyi0vn" class="animable"></path><path d="M131.42,436.6l-46-2s12.57-101,12.8-107.23c.6-16.11,11.31-120.11,11.31-120.11h56.23s-3.55,24-9.62,39.23a70.24,70.24,0,0,0-11.76,5.37s-5.27,68.78-5.47,77.35C138.49,346.22,131.42,436.6,131.42,436.6Z" style="fill: rgb(130, 87, 229); transform-origin: 125.59px 321.93px;" id="elb0v52pry4y" class="animable"></path><path d="M130.19,428.16c-7.18-.45-5.11-.42-12.29-.8-3.52-.18-26.61-1.36-29.92-.95-.07,0-.08.13,0,.14,3.27.69,26.38,1.46,29.9,1.58,7.18.23,5.12.09,12.31.24A.11.11,0,1,0,130.19,428.16Z" style="fill: rgb(38, 50, 56); transform-origin: 109.128px 427.35px;" id="eldfg0rlptgj" class="animable"></path><path d="M113.61,213.48c-2.09,26.19-4.23,52.38-6.63,78.55s-5.21,52.48-8.64,78.62c-1.91,14.61-4,35.18-6.3,49.74,0,.1.13.14.15,0,4.64-25.86,8-57.95,11-84.06s5.27-52.28,7.39-78.45c1.2-14.81,2.27-29.63,3.41-44.45C114,213.26,113.63,213.27,113.61,213.48Z" style="fill: rgb(38, 50, 56); transform-origin: 103.015px 316.896px;" id="elzhlrp2li5xq" class="animable"></path><path d="M158.11,245.5a87.41,87.41,0,0,0-13.77,6.41.15.15,0,0,0,.13.28c4.63-2,9.37-3.89,13.89-6.14A.3.3,0,0,0,158.11,245.5Z" style="fill: rgb(38, 50, 56); transform-origin: 151.394px 248.839px;" id="el3q0s8xreoum" class="animable"></path><path d="M159.58,213.67c0-.16-.29-.2-.29,0a152.13,152.13,0,0,1-.78,15.5c-.21,2.39-2.14,15.6-6.28,14.63-.69-.16-1-.84-1.16-1.89a17.16,17.16,0,0,1,.55-4c.46-2.76.83-5.53,1.07-8.33a75.51,75.51,0,0,0-.17-15.62.13.13,0,0,0-.26,0A143.87,143.87,0,0,1,151,235.46c-.51,3.44-2.24,8.61,1.35,9.14s6-8.13,6.47-10.49A78.62,78.62,0,0,0,159.58,213.67Z" style="fill: rgb(38, 50, 56); transform-origin: 155.028px 229.079px;" id="ele7tfn2l3f2" class="animable"></path><path d="M152.34,244.13a23.87,23.87,0,0,0-.93,2.74,6.24,6.24,0,0,0-.39,2.25.16.16,0,0,0,.29.06,8.1,8.1,0,0,0,1-2.19c.32-.85.65-1.69.94-2.54A.46.46,0,0,0,152.34,244.13Z" style="fill: rgb(38, 50, 56); transform-origin: 152.148px 246.529px;" id="els14wfd769od" class="animable"></path><path d="M150.91,155.21c5.24,9.46,31.9,37.94,44.25,38.84,8.05.58,36.6-10.31,43.06-14.37,7.56-4.75-1.13-24.13-6.32-23.26-6.47,1.07-29.56,11.35-35.5,12-3.41.38-21.76-12.89-38.83-25.25C151.12,138.5,147.35,148.76,150.91,155.21Z" style="fill: rgb(235, 148, 129); transform-origin: 195.36px 168.031px;" id="elgirijvfc7sq" class="animable"></path><path d="M228.34,151c4-1.36,8.43-3.25,12.84-3.13s8,6,8,7.64-1.77,12-6.17,12-1.68-8-1.84-8.91-.31-2.09-1.14-2-15.44,6.85-15.44,6.85Z" style="fill: rgb(235, 148, 129); transform-origin: 236.885px 157.687px;" id="eld2lwadb2y2u" class="animable"></path><path d="M228.62,151.63c.25,0,12.09-4.54,16.5-4.42s8,6,8,7.64-1.77,12-6.18,12-1.68-8-1.83-8.92-.32-2.08-1.15-2-15.44,6.84-15.44,6.84Z" style="fill: rgb(235, 148, 129); transform-origin: 240.82px 157.029px;" id="elv9wsdascgul" class="animable"></path><path d="M245.45,166.27a5.21,5.21,0,0,1-.71-2.61,9.17,9.17,0,0,1,.18-2.81,15.44,15.44,0,0,0,.56-2.42,4.86,4.86,0,0,0-.59-2.33c-.34-.62-1-.42-1.54-.23a22.62,22.62,0,0,0-2.41,1.07c-.85.41-1.68.84-2.52,1.26a24.37,24.37,0,0,0-2.57,1.38c-.06,0,0,.15.05.12a23.37,23.37,0,0,0,2.24-1c.85-.39,1.69-.77,2.54-1.13s1.56-.73,2.36-1.07c.28-.11.84-.41,1.16-.33s.5.9.57,1.17a4.12,4.12,0,0,1-.17,2.38,12.4,12.4,0,0,0-.48,2.41,6.35,6.35,0,0,0,.16,2.3,8.85,8.85,0,0,0,1,1.91C245.37,166.44,245.51,166.35,245.45,166.27Z" style="fill: rgb(38, 50, 56); transform-origin: 240.652px 161.033px;" id="el383c0fddd1m" class="animable"></path><path d="M214.54,163.07s12.31-11,14.87-13.2c5.14-4.39,26.69-13,29.69-13.26s4,5.85-10.61,12.1c-7.72,3.29-9.12,7.68-9,10.12s2.41,7,6.52,6.93,6.81-6,10.59-6.67,1.22,6.25-1.47,10.22A25.16,25.16,0,0,1,244,177.82c-3.55,1.3-14.57,5.93-14.57,5.93Z" style="fill: rgb(235, 148, 129); transform-origin: 237.736px 160.176px;" id="el8srnf5tbj6d" class="animable"></path><path d="M251.12,162.92c-1.55,1.18-3.32,2.71-5.35,2.77s-3.45-1.31-4.41-3a7.75,7.75,0,0,1-1-5.68,9.59,9.59,0,0,1,2.85-4.58,23.21,23.21,0,0,1,5.59-3.65c.09,0,0-.17-.08-.13-1.9.83-7.79,3.18-9,8.35a8,8,0,0,0,1.09,5.79c.9,1.64,2.21,3.23,4.19,3.41,2.42.21,4.53-1.74,6.28-3.19C251.32,162.91,251.2,162.86,251.12,162.92Z" style="fill: rgb(38, 50, 56); transform-origin: 245.431px 157.43px;" id="elsl06pbvssgo" class="animable"></path><path d="M218.05,190.08s-17.7,9.28-27.68,4.43c-5-2.41-12.69-8.4-20.15-15.29l-.36-.34c-7.46-6.94-14.56-14.76-18.25-20.82-4.43-7.24-3.88-13.26-.7-15.57a5.76,5.76,0,0,1,4.46-.91s0,0,0,0a8.49,8.49,0,0,1,1.44.37,15,15,0,0,1,4.72,2.76c10.09,8.33,30.81,22.68,33.53,22.82s11.37-4.1,11.37-4.1Z" style="fill: rgb(69, 90, 100); transform-origin: 183.228px 168.686px;" id="elni7el5oek0r" class="animable"></path><path d="M198.52,193.21a1.12,1.12,0,1,1,1.11-1.12A1.12,1.12,0,0,1,198.52,193.21Zm0-2a.87.87,0,1,0,.86.86A.87.87,0,0,0,198.52,191.23Zm12.36.05a1.12,1.12,0,1,1,1.11-1.11A1.12,1.12,0,0,1,210.88,191.28Zm0-2a.87.87,0,1,0,.86.87A.87.87,0,0,0,210.88,189.3Zm-19.71,1.1a1.12,1.12,0,1,1,1.11-1.12A1.12,1.12,0,0,1,191.17,190.4Zm0-2a.87.87,0,1,0,.86.86A.87.87,0,0,0,191.17,188.42Zm13.31,0a1.12,1.12,0,1,1,1.11-1.11A1.11,1.11,0,0,1,204.48,188.42Zm0-2a.87.87,0,1,0,.86.87A.86.86,0,0,0,204.48,186.44Zm-21.25,1.07a1.12,1.12,0,1,1,1.11-1.11A1.12,1.12,0,0,1,183.23,187.51Zm0-2a.87.87,0,1,0,.86.87A.87.87,0,0,0,183.23,185.53Zm14.11.14a1.12,1.12,0,1,1,1.11-1.11A1.12,1.12,0,0,1,197.34,185.67Zm0-2a.87.87,0,1,0,.86.87A.87.87,0,0,0,197.34,183.69Zm13.54.41A1.12,1.12,0,1,1,212,183,1.12,1.12,0,0,1,210.88,184.1Zm0-2a.87.87,0,1,0,.86.87A.87.87,0,0,0,210.88,182.12Zm-34.45,1.57a1.12,1.12,0,1,1,1.11-1.12A1.12,1.12,0,0,1,176.43,183.69Zm0-2a.87.87,0,1,0,.86.86A.87.87,0,0,0,176.43,181.71Zm13.75,1a1.12,1.12,0,1,1,1.11-1.11A1.12,1.12,0,0,1,190.18,182.7Zm0-2a.87.87,0,1,0,.86.87A.87.87,0,0,0,190.18,180.72Zm13.31.05a1.12,1.12,0,1,1,1.11-1.12A1.12,1.12,0,0,1,203.49,180.77Zm0-2a.87.87,0,1,0,.86.86A.86.86,0,0,0,203.49,178.79ZM182,180.35a1.12,1.12,0,1,1,1.12-1.12A1.12,1.12,0,0,1,182,180.35Zm0-2a.87.87,0,1,0,.87.86A.87.87,0,0,0,182,178.37Zm13.34-.41a1.12,1.12,0,1,1,1.11-1.12A1.12,1.12,0,0,1,195.36,178Zm0-2a.87.87,0,1,0,.86.86A.86.86,0,0,0,195.36,176Zm-21.59,1.58a1.12,1.12,0,1,1,1.11-1.11A1.12,1.12,0,0,1,173.77,177.56Zm0-2a.87.87,0,1,0,.86.87A.87.87,0,0,0,173.77,175.58Zm34.62,0a1.11,1.11,0,1,1,1.12-1.11A1.11,1.11,0,0,1,208.39,175.58Zm0-2a.86.86,0,1,0,.87.86A.86.86,0,0,0,208.39,173.61Zm-20.6,1.5A1.12,1.12,0,1,1,188.9,174,1.12,1.12,0,0,1,187.79,175.11Zm0-2a.87.87,0,1,0,.86.86A.86.86,0,0,0,187.79,173.13Zm13.51.22a1.12,1.12,0,1,1,1.12-1.12A1.12,1.12,0,0,1,201.3,173.35Zm0-2a.87.87,0,1,0,.87.86A.87.87,0,0,0,201.3,171.37Zm-20.9,2a1.12,1.12,0,1,1,1.11-1.12A1.12,1.12,0,0,1,180.4,173.35Zm0-2a.87.87,0,1,0,.86.86A.86.86,0,0,0,180.4,171.37Zm-12.16,2a1.12,1.12,0,1,1,1.11-1.12A1.11,1.11,0,0,1,168.24,173.35Zm0-2a.87.87,0,1,0,.86.86A.86.86,0,0,0,168.24,171.37Zm27.12-.16a1.12,1.12,0,1,1,1.11-1.11A1.11,1.11,0,0,1,195.36,171.21Zm0-2a.87.87,0,1,0,.86.87A.86.86,0,0,0,195.36,169.23Zm-20.47,1a1.11,1.11,0,1,1,1.12-1.11A1.11,1.11,0,0,1,174.89,170.22Zm0-2a.86.86,0,1,0,.87.86A.86.86,0,0,0,174.89,168.25Zm13.89.42a1.12,1.12,0,1,1,1.11-1.12A1.12,1.12,0,0,1,188.78,168.67Zm0-2a.87.87,0,1,0,.86.86A.86.86,0,0,0,188.78,166.69Zm-20,.81a1.11,1.11,0,1,1,1.11-1.11A1.11,1.11,0,0,1,168.74,167.5Zm0-2a.86.86,0,1,0,.86.86A.86.86,0,0,0,168.74,165.53Zm35.74,1.73a1.12,1.12,0,1,1,1.11-1.11A1.11,1.11,0,0,1,204.48,167.26Zm0-2a.87.87,0,1,0,.86.87A.86.86,0,0,0,204.48,165.28ZM182,166.69a1.12,1.12,0,1,1,1.12-1.12A1.12,1.12,0,0,1,182,166.69Zm0-2a.87.87,0,1,0,.87.86A.87.87,0,0,0,182,164.71Zm-20,1.18a1.12,1.12,0,1,1,1.12-1.11A1.11,1.11,0,0,1,162.07,165.89Zm0-2a.87.87,0,1,0,.87.87A.87.87,0,0,0,162.07,163.91Zm13.67.62a1.12,1.12,0,1,1,1.12-1.11A1.11,1.11,0,0,1,175.74,164.53Zm0-2a.87.87,0,1,0,.87.87A.87.87,0,0,0,175.74,162.55Zm-5.52-1.34a1.12,1.12,0,1,1,1.11-1.11A1.12,1.12,0,0,1,170.22,161.21Zm0-2a.87.87,0,1,0,.86.87A.87.87,0,0,0,170.22,159.23Zm8.76,1.22a1.11,1.11,0,1,1,1.11-1.11A1.12,1.12,0,0,1,179,160.45Zm0-2a.86.86,0,1,0,.86.86A.86.86,0,0,0,179,158.48Zm-14.72,1a1.12,1.12,0,1,1,1.11-1.12A1.12,1.12,0,0,1,164.26,159.47Zm0-2a.87.87,0,1,0,.86.86A.87.87,0,0,0,164.26,157.49Zm9.65-.69a1.12,1.12,0,1,1,1.11-1.12A1.12,1.12,0,0,1,173.91,156.8Zm0-2a.87.87,0,1,0,.86.86A.87.87,0,0,0,173.91,154.82Zm-14.93.07a1.12,1.12,0,1,1,1.11-1.11A1.12,1.12,0,0,1,159,154.89Zm0-2a.87.87,0,1,0,.86.87A.87.87,0,0,0,159,152.91Zm8.77,1a1.12,1.12,0,1,1,1.12-1.11A1.11,1.11,0,0,1,167.75,153.9Zm0-2a.87.87,0,1,0,.87.87A.87.87,0,0,0,167.75,151.92Zm-5.11-2.63a1.12,1.12,0,1,1,1.12-1.12A1.12,1.12,0,0,1,162.64,149.29Zm0-2a.87.87,0,1,0,.87.86A.87.87,0,0,0,162.64,147.31Zm-4-2.22a1.11,1.11,0,1,1,1.12-1.11A1.11,1.11,0,0,1,158.64,145.09Zm0-2a.86.86,0,1,0,.87.86A.86.86,0,0,0,158.64,143.12Z" style="fill: rgb(55, 71, 79); transform-origin: 184.739px 167.945px;" id="elwh14bb7x1hm" class="animable"></path><path d="M212.39,190.7c-.56-.93-.94-2-1.41-2.95s-.89-2-1.32-3q-1.28-3-2.51-6.12t-2.44-6.14c-.82-2.07-1.76-4.15-2.41-6.28a.08.08,0,0,1,.14-.06c1,2,1.84,4.11,2.72,6.17l2.55,6c.84,2,1.68,4,2.48,6,.42,1,.83,2.08,1.21,3.14s.84,2.1,1.11,3.18C212.53,190.71,212.43,190.78,212.39,190.7ZM156.83,142a8.49,8.49,0,0,0-1.44-.37s0,0,0,0a5.76,5.76,0,0,0-4.46.91c-3.18,2.31-3.73,8.33.7,15.57,3.69,6.06,10.79,13.88,18.25,20.82C165.22,166.65,159.27,149.14,156.83,142Z" style="fill: rgb(38, 50, 56); transform-origin: 180.469px 166.123px;" id="el60ilkli8q98" class="animable"></path><path d="M169.89,219.48c-1.08,1.07-16.36,2.32-32,3.19-5.92.33-11.9.6-17.16.78-9.6.34-14.85.39-15.17,0-.87-1.17,9.24-44,16.46-60,4.59-10.14,8.29-15.36,11.38-18.36,1.87-1.81,2.51-2.81,4-3.61.79-.42,1.54-.78,2.25-1.18,3.6-2,13.94-.85,15.59-.1,1.87.84,7.4,10.15,8.85,17.88S170.83,218.54,169.89,219.48Z" style="fill: rgb(69, 90, 100); transform-origin: 137.754px 181.454px;" id="eloipdya145a8" class="animable"></path><path d="M115.65,223.54a1.12,1.12,0,1,1,1.12-1.12A1.12,1.12,0,0,1,115.65,223.54Zm0-2a.87.87,0,1,0,.87.86A.87.87,0,0,0,115.65,221.56ZM126.58,223a1.12,1.12,0,1,1,1.11-1.12A1.12,1.12,0,0,1,126.58,223Zm0-2a.87.87,0,1,0,.86.86A.86.86,0,0,0,126.58,221Zm20.76-.43a1.12,1.12,0,1,1,1.11-1.11A1.11,1.11,0,0,1,147.34,220.59Zm0-2a.87.87,0,1,0,.86.87A.86.86,0,0,0,147.34,218.61Zm-13.51,1.58a1.12,1.12,0,1,1,1.11-1.12A1.12,1.12,0,0,1,133.83,220.19Zm0-2a.87.87,0,1,0,.86.86A.87.87,0,0,0,133.83,218.21ZM110.38,220a1.11,1.11,0,1,1,1.12-1.11A1.11,1.11,0,0,1,110.38,220Zm0-2a.86.86,0,1,0,.87.86A.86.86,0,0,0,110.38,218Zm10.24,1.73a1.11,1.11,0,1,1,1.11-1.11A1.12,1.12,0,0,1,120.62,219.75Zm0-2a.86.86,0,1,0,.86.86A.86.86,0,0,0,120.62,217.78Zm39.8,1a1.12,1.12,0,1,1,1.11-1.12A1.12,1.12,0,0,1,160.42,218.77Zm0-2a.87.87,0,1,0,.86.86A.86.86,0,0,0,160.42,216.79Zm-19-.7a1.11,1.11,0,1,1,1.11-1.11A1.11,1.11,0,0,1,141.43,216.09Zm0-2a.86.86,0,1,0,.86.86A.86.86,0,0,0,141.43,214.12Zm-14.85,1.68a1.12,1.12,0,1,1,1.11-1.11A1.11,1.11,0,0,1,126.58,215.8Zm0-2a.87.87,0,1,0,.86.87A.86.86,0,0,0,126.58,213.82Zm-11.18,2a1.12,1.12,0,1,1,1.12-1.11A1.11,1.11,0,0,1,115.4,215.8Zm0-2a.87.87,0,1,0,.87.87A.87.87,0,0,0,115.4,213.82Zm38.14,1.28a1.11,1.11,0,1,1,1.12-1.11A1.11,1.11,0,0,1,153.54,215.1Zm0-2a.86.86,0,1,0,.87.86A.86.86,0,0,0,153.54,213.13Zm11.71.34a1.12,1.12,0,1,1,1.11-1.12A1.12,1.12,0,0,1,165.25,213.47Zm0-2a.87.87,0,1,0,.86.86A.87.87,0,0,0,165.25,211.49Zm-31.42.45a1.12,1.12,0,1,1,1.11-1.12A1.12,1.12,0,0,1,133.83,211.94Zm0-2a.87.87,0,1,0,.86.86A.87.87,0,0,0,133.83,210Zm12.33,1.53a1.12,1.12,0,1,1,1.11-1.12A1.12,1.12,0,0,1,146.16,211.49Zm0-2a.87.87,0,1,0,.86.86A.87.87,0,0,0,146.16,209.51Zm-25.76,2a1.12,1.12,0,1,1,1.11-1.12A1.12,1.12,0,0,1,120.4,211.49Zm0-2a.87.87,0,1,0,.86.86A.87.87,0,0,0,120.4,209.51Zm-11.16,2a1.12,1.12,0,1,1,1.11-1.12A1.11,1.11,0,0,1,109.24,211.49Zm0-2a.87.87,0,1,0,.86.86A.86.86,0,0,0,109.24,209.51Zm49.2.1a1.11,1.11,0,1,1,1.12-1.11A1.11,1.11,0,0,1,158.44,209.61Zm0-2a.86.86,0,1,0,.87.86A.86.86,0,0,0,158.44,207.64Zm-19.48.28a1.12,1.12,0,1,1,1.12-1.11A1.11,1.11,0,0,1,139,207.92Zm0-2a.87.87,0,1,0,.87.87A.87.87,0,0,0,139,205.94Zm-12,2a1.12,1.12,0,1,1,1.12-1.11A1.11,1.11,0,0,1,126.93,207.92Zm0-2a.87.87,0,1,0,.87.87A.87.87,0,0,0,126.93,205.94Zm-12.27,1.7a1.12,1.12,0,1,1,1.12-1.12A1.12,1.12,0,0,1,114.66,207.64Zm0-2a.87.87,0,1,0,.87.86A.87.87,0,0,0,114.66,205.66Zm37.14,1a1.12,1.12,0,1,1,1.11-1.11A1.11,1.11,0,0,1,151.8,206.65Zm0-2a.87.87,0,1,0,.86.87A.86.86,0,0,0,151.8,204.67Zm11.83-.51a1.12,1.12,0,1,1,1.12-1.12A1.12,1.12,0,0,1,163.63,204.16Zm0-2a.87.87,0,1,0,.87.86A.87.87,0,0,0,163.63,202.18Zm-30.79,1.72a1.12,1.12,0,1,1,1.11-1.11A1.11,1.11,0,0,1,132.84,203.9Zm0-2a.87.87,0,1,0,.86.87A.86.86,0,0,0,132.84,201.92Zm-12,1.85a1.12,1.12,0,1,1,1.11-1.11A1.12,1.12,0,0,1,120.82,203.77Zm0-2a.87.87,0,1,0,.86.87A.87.87,0,0,0,120.82,201.79Zm24.35,1.86a1.12,1.12,0,1,1,1.11-1.12A1.12,1.12,0,0,1,145.17,203.65Zm0-2a.87.87,0,1,0,.86.86A.86.86,0,0,0,145.17,201.67Zm11.59-.38a1.12,1.12,0,1,1,1.11-1.12A1.12,1.12,0,0,1,156.76,201.29Zm0-2a.87.87,0,1,0,.86.86A.87.87,0,0,0,156.76,199.31Zm10.46.84a1.12,1.12,0,1,1,1.11-1.12A1.12,1.12,0,0,1,167.22,200.15Zm0-2a.87.87,0,1,0,.86.86A.87.87,0,0,0,167.22,198.17Zm-28.26,1a1.12,1.12,0,1,1,1.12-1.11A1.11,1.11,0,0,1,139,199.16Zm0-2a.87.87,0,1,0,.87.87A.87.87,0,0,0,139,197.18Zm-11.86,2a1.12,1.12,0,1,1,1.11-1.11A1.11,1.11,0,0,1,127.1,199.16Zm0-2a.87.87,0,1,0,.86.87A.86.86,0,0,0,127.1,197.18Zm-11.94,2a1.12,1.12,0,1,1,1.11-1.11A1.12,1.12,0,0,1,115.16,199.16Zm0-2a.87.87,0,1,0,.86.87A.87.87,0,0,0,115.16,197.18Zm34.83,1a1.12,1.12,0,1,1,1.11-1.11A1.12,1.12,0,0,1,150,198.17Zm0-2a.87.87,0,1,0,.86.87A.87.87,0,0,0,150,196.19Zm11.67,0a1.12,1.12,0,1,1,1.11-1.11A1.12,1.12,0,0,1,161.66,196.17Zm0-2a.87.87,0,1,0,.86.87A.87.87,0,0,0,161.66,194.19Zm-40.84,1a1.11,1.11,0,1,1,1.11-1.11A1.12,1.12,0,0,1,120.82,195.18Zm0-2a.86.86,0,1,0,.86.86A.86.86,0,0,0,120.82,193.21Zm12.44,1.49a1.12,1.12,0,1,1,1.11-1.12A1.12,1.12,0,0,1,133.26,194.7Zm0-2a.87.87,0,1,0,.86.86A.86.86,0,0,0,133.26,192.72Zm10.54,1.47a1.11,1.11,0,1,1,1.11-1.11A1.12,1.12,0,0,1,143.8,194.19Zm0-2a.86.86,0,1,0,.86.86A.86.86,0,0,0,143.8,192.22Zm11.72,1a1.12,1.12,0,1,1,1.11-1.12A1.12,1.12,0,0,1,155.52,193.21Zm0-2a.87.87,0,1,0,.86.86A.86.86,0,0,0,155.52,191.23Zm11.24-.46a1.12,1.12,0,1,1,1.12-1.12A1.12,1.12,0,0,1,166.76,190.77Zm0-2a.87.87,0,1,0,.87.86A.87.87,0,0,0,166.76,188.79Zm-51.6,1.61a1.12,1.12,0,1,1,1.11-1.12A1.12,1.12,0,0,1,115.16,190.4Zm0-2a.87.87,0,1,0,.86.86A.87.87,0,0,0,115.16,188.42ZM138,190.1a1.12,1.12,0,1,1,1.12-1.12A1.12,1.12,0,0,1,138,190.1Zm0-2a.87.87,0,1,0,.87.86A.87.87,0,0,0,138,188.12Zm-11.39,2a1.12,1.12,0,1,1,1.11-1.12A1.12,1.12,0,0,1,126.58,190.1Zm0-2a.87.87,0,1,0,.86.86A.86.86,0,0,0,126.58,188.12ZM150,189.78a1.12,1.12,0,1,1,1.11-1.11A1.12,1.12,0,0,1,150,189.78Zm0-2a.87.87,0,1,0,.86.87A.87.87,0,0,0,150,187.8Zm10.68.32a1.12,1.12,0,1,1,1.11-1.11A1.12,1.12,0,0,1,160.67,188.12Zm0-2a.87.87,0,1,0,.86.87A.87.87,0,0,0,160.67,186.14Zm-29-.06a1.12,1.12,0,1,1,1.11-1.12A1.12,1.12,0,0,1,131.7,186.08Zm0-2a.87.87,0,1,0,.86.86A.87.87,0,0,0,131.7,184.1Zm-10.6,2a1.12,1.12,0,1,1,1.12-1.12A1.12,1.12,0,0,1,121.1,186.08Zm0-2a.87.87,0,1,0,.87.86A.87.87,0,0,0,121.1,184.1Zm22.31,1.57a1.12,1.12,0,1,1,1.11-1.11A1.12,1.12,0,0,1,143.41,185.67Zm0-2a.87.87,0,1,0,.86.87A.87.87,0,0,0,143.41,183.69Zm11.12.41a1.12,1.12,0,1,1,1.12-1.11A1.11,1.11,0,0,1,154.53,184.1Zm0-2a.87.87,0,1,0,.87.87A.87.87,0,0,0,154.53,182.12Zm10.26.62a1.11,1.11,0,1,1,1.11-1.11A1.12,1.12,0,0,1,164.79,182.74Zm0-2a.86.86,0,1,0,.86.86A.86.86,0,0,0,164.79,180.77Zm-27.53.56a1.11,1.11,0,1,1,1.11-1.11A1.11,1.11,0,0,1,137.26,181.33Zm0-2a.86.86,0,1,0,.86.86A.85.85,0,0,0,137.26,179.36ZM126.58,181a1.11,1.11,0,1,1,1.11-1.11A1.11,1.11,0,0,1,126.58,181Zm0-2a.86.86,0,1,0,.86.86A.85.85,0,0,0,126.58,179Zm21.75,1.36a1.12,1.12,0,1,1,1.11-1.12A1.12,1.12,0,0,1,148.33,180.35Zm0-2a.87.87,0,1,0,.86.86A.87.87,0,0,0,148.33,178.37Zm11.1,1.41a1.12,1.12,0,1,1,1.11-1.11A1.11,1.11,0,0,1,159.43,179.78Zm0-2a.87.87,0,1,0,.86.87A.87.87,0,0,0,159.43,177.8Zm-37.7.16a1.12,1.12,0,1,1,1.11-1.12A1.12,1.12,0,0,1,121.73,178Zm0-2a.87.87,0,1,0,.86.86A.87.87,0,0,0,121.73,176Zm20.69.38a1.11,1.11,0,1,1,1.11-1.11A1.11,1.11,0,0,1,142.42,176.36Zm0-2a.86.86,0,1,0,.86.86A.85.85,0,0,0,142.42,174.39Zm-10.72,2a1.11,1.11,0,1,1,1.11-1.11A1.11,1.11,0,0,1,131.7,176.36Zm0-2a.86.86,0,1,0,.86.86A.86.86,0,0,0,131.7,174.39Zm21.55,1.71a1.12,1.12,0,1,1,1.12-1.12A1.12,1.12,0,0,1,153.25,176.1Zm0-2a.87.87,0,1,0,.87.86A.87.87,0,0,0,153.25,174.12Zm11,1.26a1.12,1.12,0,1,1,1.11-1.12A1.12,1.12,0,0,1,164.26,175.38Zm0-2a.87.87,0,1,0,.86.86A.87.87,0,0,0,164.26,173.4Zm-38.15-1.34a1.11,1.11,0,1,1,1.12-1.11A1.11,1.11,0,0,1,126.11,172.06Zm0-2a.86.86,0,1,0,.87.86A.86.86,0,0,0,126.11,170.09Zm21.9,1.59a1.12,1.12,0,1,1,1.11-1.12A1.12,1.12,0,0,1,148,171.68Zm0-2a.87.87,0,1,0,.86.86A.86.86,0,0,0,148,169.7Zm-10.49,2a1.12,1.12,0,1,1,1.12-1.12A1.12,1.12,0,0,1,137.52,171.68Zm0-2a.87.87,0,1,0,.87.86A.87.87,0,0,0,137.52,169.7ZM158,171.08A1.12,1.12,0,1,1,159.1,170,1.12,1.12,0,0,1,158,171.08Zm0-2a.87.87,0,1,0,.86.86A.86.86,0,0,0,158,169.1Zm-25.72-1.3a1.12,1.12,0,1,1,1.12-1.11A1.11,1.11,0,0,1,132.27,167.8Zm0-2a.87.87,0,1,0,.87.87A.87.87,0,0,0,132.27,165.82Zm9.55,1a1.12,1.12,0,1,1,1.11-1.11A1.11,1.11,0,0,1,141.82,166.81Zm0-2a.87.87,0,1,0,.86.87A.86.86,0,0,0,141.82,164.83Zm11,1.69a1.12,1.12,0,1,1,1.11-1.12A1.12,1.12,0,0,1,152.79,166.52Zm0-2a.87.87,0,1,0,.86.86A.87.87,0,0,0,152.79,164.54Zm9.28,1.35a1.12,1.12,0,1,1,1.12-1.11A1.11,1.11,0,0,1,162.07,165.89Zm0-2a.87.87,0,1,0,.87.87A.87.87,0,0,0,162.07,163.91Zm-36.48.63a1.12,1.12,0,1,1,1.12-1.11A1.11,1.11,0,0,1,125.59,164.54Zm0-2a.87.87,0,1,0,.87.87A.87.87,0,0,0,125.59,162.56Zm21.43,0a1.12,1.12,0,1,1,1.11-1.11A1.11,1.11,0,0,1,147,162.56Zm0-2a.87.87,0,1,0,.86.87A.86.86,0,0,0,147,160.58ZM136.54,162a1.12,1.12,0,1,1,1.11-1.11A1.12,1.12,0,0,1,136.54,162Zm0-2a.87.87,0,1,0,.86.87A.87.87,0,0,0,136.54,160Zm21.11,1.55a1.11,1.11,0,1,1,1.12-1.11A1.11,1.11,0,0,1,157.65,161.57Zm0-2a.86.86,0,1,0,.87.86A.86.86,0,0,0,157.65,159.6Zm6.61-.13a1.12,1.12,0,1,1,1.11-1.12A1.12,1.12,0,0,1,164.26,159.47Zm0-2a.87.87,0,1,0,.86.86A.87.87,0,0,0,164.26,157.49Zm-34,1a1.12,1.12,0,1,1,1.12-1.12A1.12,1.12,0,0,1,130.29,158.48Zm0-2a.87.87,0,1,0,.87.86A.87.87,0,0,0,130.29,156.5Zm22.27,1a1.12,1.12,0,1,1,1.11-1.12A1.12,1.12,0,0,1,152.56,157.49Zm0-2a.87.87,0,1,0,.86.86A.87.87,0,0,0,152.56,155.51Zm-10.74,2a1.12,1.12,0,1,1,1.11-1.12A1.12,1.12,0,0,1,141.82,157.49Zm0-2a.87.87,0,1,0,.86.86A.86.86,0,0,0,141.82,155.51Zm17.16-.62a1.12,1.12,0,1,1,1.11-1.11A1.12,1.12,0,0,1,159,154.89Zm0-2a.87.87,0,1,0,.86.87A.87.87,0,0,0,159,152.91Zm-11.64.63a1.12,1.12,0,1,1,1.11-1.12A1.12,1.12,0,0,1,147.34,153.54Zm0-2a.87.87,0,1,0,.86.86A.86.86,0,0,0,147.34,151.56Zm-11.79,1.35a1.12,1.12,0,1,1,1.11-1.11A1.12,1.12,0,0,1,135.55,152.91Zm0-2a.87.87,0,1,0,.86.87A.87.87,0,0,0,135.55,150.93Zm19-1.64a1.12,1.12,0,1,1,1.12-1.12A1.12,1.12,0,0,1,154.53,149.29Zm0-2a.87.87,0,1,0,.87.86A.87.87,0,0,0,154.53,147.31Zm-11.72,2a1.12,1.12,0,1,1,1.11-1.12A1.12,1.12,0,0,1,142.81,149.29Zm0-2a.87.87,0,1,0,.86.86A.87.87,0,0,0,142.81,147.31Zm-7.26-1.61a1.12,1.12,0,1,1,1.11-1.11A1.12,1.12,0,0,1,135.55,145.7Zm0-2a.87.87,0,1,0,.86.87A.87.87,0,0,0,135.55,143.72Zm23.09,1.37a1.11,1.11,0,1,1,1.12-1.11A1.11,1.11,0,0,1,158.64,145.09Zm0-2a.86.86,0,1,0,.87.86A.86.86,0,0,0,158.64,143.12Zm-10.31,1.28a1.12,1.12,0,1,1,1.11-1.11A1.12,1.12,0,0,1,148.33,144.4Zm0-2a.87.87,0,1,0,.86.87A.87.87,0,0,0,148.33,142.42Z" style="fill: rgb(55, 71, 79); transform-origin: 138.269px 182.74px;" id="elk853r5n0rv" class="animable"></path><path d="M137.92,222.67c-5.92.33-11.9.6-17.16.78-9.6.34-14.85.39-15.17,0-.87-1.17,9.24-44,16.46-60,4.59-10.14,8.29-15.36,11.38-18.36,1.87-1.81,2.51-2.81,4-3.61Zm20.17-78.88c0-.21-.16-.25-.18,0-.21,2.65-.48,5.88-2.25,7.58-2.3,2.21-6,.75-8.39-.57-3.79-2-6.57-5.42-8.79-9a.12.12,0,0,0-.21.12c2.5,4.82,6.62,9.34,12,10.85C156.37,154.38,158.64,149.47,158.09,143.79Z" style="fill: rgb(38, 50, 56); transform-origin: 131.853px 182.602px;" id="ellc2mgfeaf18" class="animable"></path><polygon points="167.22 225.29 202.41 230.41 216.3 181.56 181.1 176.45 167.22 225.29" style="fill: rgb(166, 166, 166); transform-origin: 191.76px 203.43px;" id="elozi2rdkc6r" class="animable"></polygon><polygon points="168.94 225.54 204.14 230.66 218.03 181.81 182.83 176.7 168.94 225.54" style="fill: rgb(219, 219, 219); transform-origin: 193.485px 203.68px;" id="el8o8ctiz783" class="animable"></polygon><path d="M198.43,202.17a3.84,3.84,0,0,1-4.22,2.88,3.11,3.11,0,0,1-2.63-3.87,3.86,3.86,0,0,1,4.22-2.89A3.13,3.13,0,0,1,198.43,202.17Z" style="fill: rgb(255, 255, 255); transform-origin: 195.004px 201.671px;" id="el3bnwu6ahukh" class="animable"></path><path d="M132,146.22c-10.28,14.05-32.35,50.23-25.72,57.52,10.89,12,37.11,22.15,45.27,24.37,3.52,1,15.32-24.81,12-26.82-4-2.41-30.33-10.24-30.26-12.62.05-1.36,3.39-13.61,5.8-28.19C141.82,143.57,135.48,141.4,132,146.22Z" style="fill: rgb(235, 148, 129); transform-origin: 134.596px 186.058px;" id="elel4s28l4gd8" class="animable"></path><path d="M150.7,199.83s10.57-3.39,17.59-5.28c3.92-1.06,10.8-2.27,14-1.72,4.83.81,24.54,7.28,23.07,12.09-1.33,4.35-17.55-3.36-17.55-3.36s17.06,6.34,14.5,11.29-19.74-6.2-19.74-6.2,17.38,6.9,13.93,11.58c-2.6,3.54-18.72-5.68-18.72-5.68s14.89,6,12.37,9.79c-2.79,4.16-18.2-3.42-18.2-3.42-8,8.47-15.31,9.22-20.56,9.14C150.15,228,150.7,199.83,150.7,199.83Z" style="fill: rgb(235, 148, 129); transform-origin: 178.008px 210.379px;" id="el4yw85szqt9g" class="animable"></path><path d="M182.08,199c2,.68,4.09,1.34,6.06,2.19s3.9,1.77,5.77,2.8a36,36,0,0,1,6.92,4.7c-4-3-11-6.12-12.94-7s-3.88-1.79-5.84-2.64C182,199.05,182,199,182.08,199Z" style="fill: rgb(38, 50, 56); transform-origin: 191.423px 203.845px;" id="eldsgpbqgawb" class="animable"></path><path d="M178.89,206c2.55,1,5.12,1.84,7.64,2.92s4.78,2.32,7.2,3.57c.18.09.07.16-.12.07-2.47-1.15-4.84-2-7.32-3.14s-4.92-2.34-7.43-3.36A0,0,0,0,1,178.89,206Z" style="fill: rgb(38, 50, 56); transform-origin: 186.341px 209.301px;" id="el6mibxh74jn5" class="animable"></path><path d="M175.06,211.57a61.86,61.86,0,0,1,11.34,5.36c.18.11,0,.18-.17.09-3.73-1.86-6.65-3.34-11.22-5.31A.08.08,0,0,1,175.06,211.57Z" style="fill: rgb(38, 50, 56); transform-origin: 180.729px 214.316px;" id="elhkn8t149mjt" class="animable"></path><path d="M147.76,194.58l-12.69,29.48s-28.73-12.88-31-23.27,22.49-47.86,27.23-54c1.34-1.73,5-5.69,6.87-5.29,2.08.45,2,3.5,2,10.55.09,9.39-6.59,35.39-6,36.43S147.76,194.58,147.76,194.58Z" style="fill: rgb(69, 90, 100); transform-origin: 125.842px 182.766px;" id="el7f0drzyqj4o" class="animable"></path><path d="M133.83,220.19a1.12,1.12,0,1,1,1.11-1.12A1.12,1.12,0,0,1,133.83,220.19Zm0-2a.87.87,0,1,0,.86.86A.87.87,0,0,0,133.83,218.21Zm-7.25-2.41a1.12,1.12,0,1,1,1.11-1.11A1.11,1.11,0,0,1,126.58,215.8Zm0-2a.87.87,0,1,0,.86.87A.86.86,0,0,0,126.58,213.82Zm7.25-1.88a1.12,1.12,0,1,1,1.11-1.12A1.12,1.12,0,0,1,133.83,211.94Zm0-2a.87.87,0,1,0,.86.86A.87.87,0,0,0,133.83,210Zm-13.43,1.53a1.12,1.12,0,1,1,1.11-1.12A1.12,1.12,0,0,1,120.4,211.49Zm0-2a.87.87,0,1,0,.86.86A.87.87,0,0,0,120.4,209.51ZM139,207.92a1.12,1.12,0,1,1,1.12-1.11A1.11,1.11,0,0,1,139,207.92Zm0-2a.87.87,0,1,0,.87.87A.87.87,0,0,0,139,205.94Zm-12,2a1.12,1.12,0,1,1,1.12-1.11A1.11,1.11,0,0,1,126.93,207.92Zm0-2a.87.87,0,1,0,.87.87A.87.87,0,0,0,126.93,205.94Zm-12.27,1.7a1.12,1.12,0,1,1,1.12-1.12A1.12,1.12,0,0,1,114.66,207.64Zm0-2a.87.87,0,1,0,.87.86A.87.87,0,0,0,114.66,205.66Zm18.18-1.76a1.12,1.12,0,1,1,1.11-1.11A1.11,1.11,0,0,1,132.84,203.9Zm0-2a.87.87,0,1,0,.86.87A.86.86,0,0,0,132.84,201.92Zm-12,1.85a1.12,1.12,0,1,1,1.11-1.11A1.12,1.12,0,0,1,120.82,203.77Zm0-2a.87.87,0,1,0,.86.87A.87.87,0,0,0,120.82,201.79Zm-11.22,1.5a1.12,1.12,0,1,1,1.11-1.12A1.12,1.12,0,0,1,109.6,203.29Zm0-2a.87.87,0,1,0,.86.86A.86.86,0,0,0,109.6,201.31ZM139,199.16a1.12,1.12,0,1,1,1.12-1.11A1.11,1.11,0,0,1,139,199.16Zm0-2a.87.87,0,1,0,.87.87A.87.87,0,0,0,139,197.18Zm-11.86,2a1.12,1.12,0,1,1,1.11-1.11A1.11,1.11,0,0,1,127.1,199.16Zm0-2a.87.87,0,1,0,.86.87A.86.86,0,0,0,127.1,197.18Zm-11.94,2a1.12,1.12,0,1,1,1.11-1.11A1.12,1.12,0,0,1,115.16,199.16Zm0-2a.87.87,0,1,0,.86.87A.87.87,0,0,0,115.16,197.18Zm-9.29,1.74A1.12,1.12,0,1,1,107,197.8,1.12,1.12,0,0,1,105.87,198.92Zm0-2a.87.87,0,1,0,.86.86A.86.86,0,0,0,105.87,196.94Zm5.13-1.25a1.12,1.12,0,1,1,1.11-1.12A1.12,1.12,0,0,1,111,195.69Zm0-2a.87.87,0,1,0,.86.86A.86.86,0,0,0,111,193.71Zm9.82,1.47a1.11,1.11,0,1,1,1.11-1.11A1.12,1.12,0,0,1,120.82,195.18Zm0-2a.86.86,0,1,0,.86.86A.86.86,0,0,0,120.82,193.21Zm12.44,1.49a1.12,1.12,0,1,1,1.11-1.12A1.12,1.12,0,0,1,133.26,194.7Zm0-2a.87.87,0,1,0,.86.86A.86.86,0,0,0,133.26,192.72Zm-26-.65a1.11,1.11,0,1,1,1.11-1.11A1.11,1.11,0,0,1,107.28,192.07Zm0-2a.86.86,0,1,0,.86.86A.87.87,0,0,0,107.28,190.1Zm7.88.3a1.12,1.12,0,1,1,1.11-1.12A1.12,1.12,0,0,1,115.16,190.4Zm0-2a.87.87,0,1,0,.86.86A.87.87,0,0,0,115.16,188.42Zm11.42,1.68a1.12,1.12,0,1,1,1.11-1.12A1.12,1.12,0,0,1,126.58,190.1Zm0-2a.87.87,0,1,0,.86.86A.86.86,0,0,0,126.58,188.12Zm5.12-2a1.12,1.12,0,1,1,1.11-1.12A1.12,1.12,0,0,1,131.7,186.08Zm0-2a.87.87,0,1,0,.86.86A.87.87,0,0,0,131.7,184.1Zm-10.6,2a1.12,1.12,0,1,1,1.12-1.12A1.12,1.12,0,0,1,121.1,186.08Zm0-2a.87.87,0,1,0,.87.86A.87.87,0,0,0,121.1,184.1Zm-10.87,2a1.12,1.12,0,1,1,1.11-1.12A1.12,1.12,0,0,1,110.23,186.08Zm0-2a.87.87,0,1,0,.86.86A.87.87,0,0,0,110.23,184.1Zm5.42-2.15a1.12,1.12,0,1,1,1.12-1.11A1.11,1.11,0,0,1,115.65,182Zm0-2a.87.87,0,1,0,.87.87A.87.87,0,0,0,115.65,180Zm10.93,1a1.11,1.11,0,1,1,1.11-1.11A1.11,1.11,0,0,1,126.58,181Zm0-2a.86.86,0,1,0,.86.86A.85.85,0,0,0,126.58,179Zm-4.85-1a1.12,1.12,0,1,1,1.11-1.12A1.12,1.12,0,0,1,121.73,178Zm0-2a.87.87,0,1,0,.86.86A.87.87,0,0,0,121.73,176Zm10,.38a1.11,1.11,0,1,1,1.11-1.11A1.11,1.11,0,0,1,131.7,176.36Zm0-2a.86.86,0,1,0,.86.86A.86.86,0,0,0,131.7,174.39Zm-16.3.72a1.12,1.12,0,1,1,1.12-1.12A1.12,1.12,0,0,1,115.4,175.11Zm0-2a.87.87,0,1,0,.87.86A.87.87,0,0,0,115.4,173.13Zm10.71-1.07a1.11,1.11,0,1,1,1.12-1.11A1.11,1.11,0,0,1,126.11,172.06Zm0-2a.86.86,0,1,0,.87.86A.86.86,0,0,0,126.11,170.09Zm11.41,1.59a1.12,1.12,0,1,1,1.12-1.12A1.12,1.12,0,0,1,137.52,171.68Zm0-2a.87.87,0,1,0,.87.86A.87.87,0,0,0,137.52,169.7Zm-17.41-.47a1.11,1.11,0,1,1,1.12-1.11A1.11,1.11,0,0,1,120.11,169.23Zm0-2a.86.86,0,1,0,.87.86A.86.86,0,0,0,120.11,167.26Zm12.16.54a1.12,1.12,0,1,1,1.12-1.11A1.11,1.11,0,0,1,132.27,167.8Zm0-2a.87.87,0,1,0,.87.87A.87.87,0,0,0,132.27,165.82Zm-6.68-1.28a1.12,1.12,0,1,1,1.12-1.11A1.11,1.11,0,0,1,125.59,164.54Zm0-2a.87.87,0,1,0,.87.87A.87.87,0,0,0,125.59,162.56Zm10.95-.56a1.12,1.12,0,1,1,1.11-1.11A1.12,1.12,0,0,1,136.54,162Zm0-2a.87.87,0,1,0,.86.87A.87.87,0,0,0,136.54,160Zm-11-1.25a1.11,1.11,0,1,1,1.11-1.11A1.12,1.12,0,0,1,125.55,158.77Zm0-2a.86.86,0,1,0,.86.86A.86.86,0,0,0,125.55,156.8Zm4.74,1.68a1.12,1.12,0,1,1,1.12-1.12A1.12,1.12,0,0,1,130.29,158.48Zm0-2a.87.87,0,1,0,.87.86A.87.87,0,0,0,130.29,156.5Zm5.26-3.59a1.12,1.12,0,1,1,1.11-1.11A1.12,1.12,0,0,1,135.55,152.91Zm0-2a.87.87,0,1,0,.86.87A.87.87,0,0,0,135.55,150.93Zm-5.26.32a1.11,1.11,0,1,1,1.12-1.11A1.11,1.11,0,0,1,130.29,151.25Zm0-2a.86.86,0,1,0,.87.86A.86.86,0,0,0,130.29,149.28Zm5.26-3.58a1.12,1.12,0,1,1,1.11-1.11A1.12,1.12,0,0,1,135.55,145.7Zm0-2a.87.87,0,1,0,.86.87A.87.87,0,0,0,135.55,143.72Z" style="fill: rgb(55, 71, 79); transform-origin: 122.44px 181.585px;" id="ely669ixwm76e" class="animable"></path><path d="M131.75,218.31c.29-1.05.77-2,1.16-3.05s.8-2,1.23-3c.87-2,1.77-4,2.68-6s1.82-4,2.74-6,1.78-4.14,2.86-6.09a.08.08,0,0,1,.15.07c-.71,2.12-1.7,4.17-2.57,6.22l-2.55,6c-.85,2-1.71,4-2.6,5.94-.47,1-.93,2-1.44,3s-.92,2.06-1.52,3C131.85,218.42,131.73,218.4,131.75,218.31Zm15.9-23.74c-1-.57-9.81-5.17-13.21-6-.1,0-.15.08-.06.14,3.22,2.26,12.17,5.73,13.22,6C147.69,194.74,147.71,194.61,147.65,194.57Z" style="fill: rgb(38, 50, 56); transform-origin: 139.716px 203.489px;" id="eldh9fn36wjqd" class="animable"></path><path d="M153.45,149.06c-3.61,1.08-10.21-4.14-12.95-8.52-.19-.3.1-3.6.25-7.62.09-2.44.12-5.17,0-7.65,0-.51,1.76.32,1.76.32l3.26.59,10.79,2a39.63,39.63,0,0,0-.95,9.63,6.2,6.2,0,0,0,.17,1,.65.65,0,0,1,0,.16C156.22,140.87,156.93,148,153.45,149.06Z" style="fill: rgb(235, 148, 129); transform-origin: 148.499px 137.154px;" id="el2qxurts3rwm" class="animable"></path><path d="M155.76,138.79a.65.65,0,0,1,0,.16,9.41,9.41,0,0,1-1.59.18c-10.51.39-12.61-12.88-12.61-12.88l4.16-.07,10.79,2a39.63,39.63,0,0,0-.95,9.63A6.2,6.2,0,0,0,155.76,138.79Z" style="fill: rgb(38, 50, 56); transform-origin: 149.035px 132.659px;" id="elgghy47b739" class="animable"></path><path d="M158.68,97.79s4.79,2.41,5.33,7.5-1,10.26-1.45,10.49S158.68,97.79,158.68,97.79Z" style="fill: rgb(38, 50, 56); transform-origin: 161.402px 106.786px;" id="elf7vb1maq7z7" class="animable"></path><path d="M137.75,106.53c-1.53,5.58,1.84,21.49,5.88,24.94,5.85,5,15.21,5.24,19.41-1.74,4.06-6.77-.7-27.43-5.19-30.54C151.24,94.6,140,98.28,137.75,106.53Z" style="fill: rgb(235, 148, 129); transform-origin: 150.976px 116.151px;" id="el5ki8qh0oz37" class="animable"></path><path d="M153.32,115.88s-.08.07-.06.11c.25,1.07.36,2.33-.53,2.89,0,0,0,.07,0,.05C153.9,118.52,153.73,116.85,153.32,115.88Z" style="fill: rgb(38, 50, 56); transform-origin: 153.179px 117.407px;" id="elqdrz3qkb8b" class="animable"></path><path d="M152.13,115c-1.75.22-1.17,3.71.45,3.5S153.6,114.77,152.13,115Z" style="fill: rgb(38, 50, 56); transform-origin: 152.304px 116.749px;" id="elkoqq8105h5s" class="animable"></path><path d="M159.37,114.9s.09,0,.1.08c.15,1.09.5,2.31,1.53,2.51,0,0,0,.06,0,.06C159.78,117.58,159.33,116,159.37,114.9Z" style="fill: rgb(38, 50, 56); transform-origin: 160.184px 116.225px;" id="elaa2eevj4jyb" class="animable"></path><path d="M160.15,113.61c1.71-.42,2.43,3,.84,3.43S158.71,114,160.15,113.61Z" style="fill: rgb(38, 50, 56); transform-origin: 160.619px 115.326px;" id="el2pxz4hcxnhs" class="animable"></path><path d="M150.49,113.59c.45-.2.84-.46,1.27-.7a2.33,2.33,0,0,0,1.16-1,.76.76,0,0,0-.27-.88,1.87,1.87,0,0,0-1.87.12,2.77,2.77,0,0,0-1.36,1.42A.8.8,0,0,0,150.49,113.59Z" style="fill: rgb(38, 50, 56); transform-origin: 151.162px 112.239px;" id="elnr6s8qq2fh" class="animable"></path><path d="M161.2,111.63a14,14,0,0,1-1.44-.13,2.3,2.3,0,0,1-1.45-.41.75.75,0,0,1-.11-.91,1.86,1.86,0,0,1,1.76-.64,2.74,2.74,0,0,1,1.82.75A.8.8,0,0,1,161.2,111.63Z" style="fill: rgb(38, 50, 56); transform-origin: 160.042px 110.57px;" id="el4wykdy4jhcb" class="animable"></path><path d="M153.19,126.22c.3.21.61.51,1,.48a2.83,2.83,0,0,0,1.12-.47s.07,0,.05,0a1.49,1.49,0,0,1-1.27.82,1.18,1.18,0,0,1-1-.82C153.06,126.22,153.14,126.19,153.19,126.22Z" style="fill: rgb(38, 50, 56); transform-origin: 154.224px 126.629px;" id="elkqt28z9o4bg" class="animable"></path><path d="M153.78,122.79a3.74,3.74,0,0,0,2.73,1.23,4.29,4.29,0,0,0,1.33-.16.91.91,0,0,0,.25-.07,1,1,0,0,0,.23-.08.25.25,0,0,0,.18-.27h0l0-.11h0l0-.09c-.12-.84-.41-2.09-.41-2.09.33.1,2,.54,1.9.11a56.23,56.23,0,0,0-3.28-10.9.1.1,0,0,0-.19.06c.64,3.46,1.89,6.78,2.6,10.24a6.45,6.45,0,0,0-1.83-.24c-.11,0,.61,2.41.63,2.79,0,0,0,0,0,0a5.18,5.18,0,0,1-4-.55C153.78,122.63,153.7,122.72,153.78,122.79Z" style="fill: rgb(38, 50, 56); transform-origin: 156.871px 117.161px;" id="eluacdnzl1hls" class="animable"></path><path d="M157.28,123.52a4.43,4.43,0,0,1-1.52,1.65,2,2,0,0,1-1.18.27c-.9-.08-1.05-.87-1-1.58a5,5,0,0,1,.22-1.1A5.71,5.71,0,0,0,157.28,123.52Z" style="fill: rgb(38, 50, 56); transform-origin: 155.426px 124.103px;" id="el7rhmff0xtze" class="animable"></path><path d="M155.76,125.17a2,2,0,0,1-1.18.27c-.9-.08-1.05-.87-1-1.58A2.07,2.07,0,0,1,155.76,125.17Z" style="fill: rgb(255, 152, 185); transform-origin: 154.666px 124.646px;" id="elty0y80xc0e" class="animable"></path><path d="M158.86,116c-.38-2.34.57-4.46,2.12-4.71s3.13,1.44,3.51,3.79-.56,4.46-2.11,4.72S159.25,118.34,158.86,116Zm.57-.09c.34,2,1.61,3.52,2.85,3.32s2-2,1.64-4.06-1.61-3.51-2.85-3.31S159.1,113.87,159.43,115.9Z" style="fill: rgb(69, 90, 100); transform-origin: 161.675px 115.546px;" id="elvvk883htfv" class="animable"></path><path d="M148.17,117.75a4,4,0,1,1,4.67,3.6A4.18,4.18,0,0,1,148.17,117.75Zm.57-.09a3.46,3.46,0,1,0,2.8-4.25A3.6,3.6,0,0,0,148.74,117.66Z" style="fill: rgb(69, 90, 100); transform-origin: 152.155px 117.374px;" id="elgdly3mphqxm" class="animable"></path><path d="M155.86,116.09c2-1.09,3.08-.55,3.09-.55l.28-.5s-1.33-.72-3.65.55Z" style="fill: rgb(69, 90, 100); transform-origin: 157.405px 115.463px;" id="elshl4sv5ch4o" class="animable"></path><path d="M148.39,117.33l0-.58c-.39,0-9.33-.18-10.28-.08s-3.11,1.79-3.35,2l.36.45a11,11,0,0,1,3-1.85h0C138.92,117.17,145.18,117.27,148.39,117.33Z" style="fill: rgb(69, 90, 100); transform-origin: 141.575px 117.88px;" id="el6tlei4tv6yp" class="animable"></path><path d="M139.64,119.23c1.81.26,3-5.26,3.24-7.34.22-1.84-.09-7.52-.06-7.92s8.31,3.77,12.47,1.82,6.47-6.33,6.24-8.16S155.17,92,150.45,92.5s-10.13,7.44-10.13,7.44A21.64,21.64,0,0,0,142,96.83c-.1-.2-2.94,1.48-3.16,3.72,0,0,.18-2.8-.06-2.81s-2.23,2.67-1.42,4.34c0,0-2.35,2.78-2.2,5.41S137.51,118.92,139.64,119.23Z" style="fill: rgb(38, 50, 56); transform-origin: 148.349px 105.847px;" id="elf3iis85z27u" class="animable"></path><path d="M158.25,104.39a14.57,14.57,0,0,1-3.89,2.12,10.08,10.08,0,0,1-4.82,0,15,15,0,0,1-4.5-1.8c-1.23-.72-2.37-1.66-3.66-2.27-.32-.16-.59.31-.37.55a15.82,15.82,0,0,0,8.82,4.59,9.09,9.09,0,0,0,8.44-3.14S158.27,104.38,158.25,104.39Z" style="fill: rgb(38, 50, 56); transform-origin: 149.6px 105.053px;" id="el3qtcbb5m3u" class="animable"></path><path d="M141.53,119.46s-3.86-5-6.14-3.59.79,8.76,3.6,9.65a2.79,2.79,0,0,0,3.67-1.68Z" style="fill: rgb(235, 148, 129); transform-origin: 138.628px 120.669px;" id="elq20xhukseyg" class="animable"></path><path d="M136.32,118a0,0,0,0,0,0,.07c2,.69,3.07,2.43,3.87,4.25a1.55,1.55,0,0,0-2.33-.31.06.06,0,0,0,.06.1,1.74,1.74,0,0,1,1.92.51,8.16,8.16,0,0,1,1,1.49c.1.17.41.06.33-.13v0C141.06,121.43,139,118.08,136.32,118Z" style="fill: rgb(38, 50, 56); transform-origin: 138.752px 121.097px;" id="elsatxjdgl9y" class="animable"></path><path d="M155.9,139.38l-3.89,9.4-11.6-12.08-3.36,3.79s11.25,19.11,11.33,18.25l4-8.09,5.55,5.73-.3-14.22Z" style="fill: rgb(235, 235, 235); transform-origin: 147.49px 147.734px;" id="eld3r4es5toj7" class="animable"></path><path d="M158.17,149.34c-.13-2.34-.19-4.71-.43-7.05,0-.08-.13-.12-.15,0-.5,2.26,0,11.22,0,13.37l0,0c-.23-.25-5.14-5-5.19-5-.86,1.28-3.78,7.18-4,7.71-1.78-3-8.6-14.07-10.72-16.94a.08.08,0,0,0-.14.08c1.57,3.2,10.6,18.06,10.74,18a90.62,90.62,0,0,0,4.17-8.56c.83,1,5.78,6.45,5.8,6.1A71,71,0,0,0,158.17,149.34Z" style="fill: rgb(38, 50, 56); transform-origin: 147.924px 150.45px;" id="elwuok23ruui" class="animable"></path></g><g id="freepik--Plant--inject-23" class="animable" style="transform-origin: 396.75px 334.295px;"><path d="M404.32,366.3a317.67,317.67,0,0,0-.46-33.52,426.81,426.81,0,0,0-10.5-68.27c-2.93-12.64-6.54-25.06-10.29-37.47-.12-.37-.71-.27-.61.12C394.08,270.9,403.61,316,403,361.51c-.18,12.73-1.66,25.23-2.86,37.87,0,.34.52.47.6.13C403.09,388.69,403.87,377.35,404.32,366.3Z" style="fill: rgb(130, 87, 229); transform-origin: 393.506px 313.259px;" id="el8luat842oai" class="animable"></path><path d="M382.46,227.16s-17.6,44.67-13.66,55.17,12.06,12.74,12.06,12.74-10.76,15.37-3.24,29.79,24.24,13.73,25.35,30.08C403,354.94,403.91,286.59,382.46,227.16Z" style="fill: rgb(130, 87, 229); transform-origin: 385.604px 291.05px;" id="el2amwjn3rxj3" class="animable"></path><path d="M401.06,326.72a.33.33,0,0,0,0-.24c-2.47-30.37-7.86-60.65-17.07-89.85a.07.07,0,0,0-.14,0q5.24,19.59,9.24,39.41a19.51,19.51,0,0,0-8.4-4.69c-.06,0-.09.07,0,.09,3.25,1.41,6.37,3,8.67,5.8q.78,3.89,1.5,7.77c-3.94-4.39-9.39-6.57-14.85-8.65-.07,0-.12.09,0,.12,5.68,2.32,11.34,5.3,15.2,10.2q2,11.12,3.53,22.31a21.31,21.31,0,0,0-10.49-6c-.13,0-.19.16-.07.19A22.22,22.22,0,0,1,398.73,310l.07.05q.52,3.93,1,7.88a27,27,0,0,0-7.35-4.43c-.07,0-.11.08,0,.11a25.16,25.16,0,0,1,7.36,4.87.26.26,0,0,0,.1,0c.29,2.5.58,5,.84,7.51a35.87,35.87,0,0,0-14.93-10.66c-.11,0-.17.14-.06.18a39,39,0,0,1,14.71,11.32.31.31,0,0,0,.37.12q.57,5.76,1,11.55c0,.05.09.06.09,0Q401.55,332.64,401.06,326.72Z" style="fill: rgb(38, 50, 56); transform-origin: 390.934px 287.551px;" id="elmoqby5ztct" class="animable"></path><path d="M386.92,267a21.93,21.93,0,0,0-10.57-3.3.07.07,0,1,0,0,.13,42.1,42.1,0,0,1,10.45,3.42A.14.14,0,0,0,386.92,267Z" style="fill: rgb(38, 50, 56); transform-origin: 381.618px 265.476px;" id="el60aa2lu9hxa" class="animable"></path><path d="M389.06,314.24a22.36,22.36,0,0,0-7.94-2.72c-.09,0-.1.14,0,.15a29.57,29.57,0,0,1,7.85,2.76C389.07,314.48,389.16,314.3,389.06,314.24Z" style="fill: rgb(38, 50, 56); transform-origin: 385.076px 312.979px;" id="elnnpqsy73n7e" class="animable"></path><path d="M450.58,283.06a119.93,119.93,0,0,0-20.37,17.8,73.23,73.23,0,0,0-14.29,24.23A181.44,181.44,0,0,0,405.28,383a141,141,0,0,0,3.14,32.59.31.31,0,0,0,.61-.12,182.51,182.51,0,0,1,.32-56.95c3-18.48,7.77-38.58,19.52-53.6,6.39-8.18,14.37-14.61,22.25-21.26C451.53,283.33,451,282.76,450.58,283.06Z" style="fill: rgb(130, 87, 229); transform-origin: 428.259px 349.408px;" id="elztki3iap18" class="animable"></path><path d="M407.87,369.72a109.77,109.77,0,0,1,14.85-19c8.8-8.8,16.22-15.06,17.36-20.88s-8.82-10.1-8.82-10.1,12.19,2.18,15.52-2.93,4.94-34.72,4.94-34.72-22.16,15.82-32.49,38S407.87,369.72,407.87,369.72Z" style="fill: rgb(130, 87, 229); transform-origin: 429.795px 325.905px;" id="elbtcsct22nhm" class="animable"></path><path d="M444.05,289.7c-9.32,9.16-18.71,18.92-24.2,30.95A118.71,118.71,0,0,0,415,333.41v0c-.28.88-.57,1.75-.84,2.63a.37.37,0,0,0,0,.15,249.51,249.51,0,0,0-6.3,27.35c0,.06.08.09.09,0,1-4.62,2-9.28,3.19-13.93l.13,0a19.48,19.48,0,0,1,5.82-1.48c.13,0,.12-.24,0-.23a21.68,21.68,0,0,0-5.75,1.05c1.07-4.2,2.24-8.38,3.55-12.5a61.41,61.41,0,0,1,13.15-1.72s.05-.07,0-.07A49.57,49.57,0,0,0,415,335.77l.7-2.11a66.33,66.33,0,0,1,8.75-1.48c.05,0,.05-.1,0-.1a43.27,43.27,0,0,0-8.56,1c1.21-3.56,2.51-7.08,3.95-10.51a64.17,64.17,0,0,1,4.19-8.12,53.18,53.18,0,0,1,7.09-1.27c.07,0,.06-.11,0-.12a19.34,19.34,0,0,0-6.64.66c1.17-1.88,2.39-3.73,3.71-5.51h0c5-1.1,10-2.13,15.09-1.17.09,0,.12-.13,0-.15-4.84-1.28-9.64-.54-14.46.41.53-.7,1.06-1.39,1.61-2.08a33.12,33.12,0,0,1,9.28-1.46.05.05,0,1,0,0-.1,24.33,24.33,0,0,0-8.66.77c4.11-5.1,8.65-9.9,13.14-14.64C444.44,289.61,444.27,289.48,444.05,289.7Z" style="fill: rgb(38, 50, 56); transform-origin: 426.087px 326.591px;" id="el6ss7j0gkvhc" class="animable"></path><path d="M443.81,309.88a20.35,20.35,0,0,0-4.41-.15.16.16,0,0,0,0,.31c1.46,0,2.92-.06,4.38,0C443.9,310.06,443.92,309.89,443.81,309.88Z" style="fill: rgb(38, 50, 56); transform-origin: 441.581px 309.857px;" id="el74yk9uhqomx" class="animable"></path><path d="M427.85,338.61A20,20,0,0,0,421,340s0,.11,0,.1c2.26-.54,4.54-.76,6.82-1.13A.17.17,0,0,0,427.85,338.61Z" style="fill: rgb(38, 50, 56); transform-origin: 424.508px 339.355px;" id="el6p5aq66ivj4" class="animable"></path><path d="M423.07,328.69a14.16,14.16,0,0,0-2.9.26c-.09,0-.09.17,0,.17a14.17,14.17,0,0,0,2.91-.14A.15.15,0,0,0,423.07,328.69Z" style="fill: rgb(38, 50, 56); transform-origin: 421.645px 328.915px;" id="elxjmcsyke0fe" class="animable"></path><path d="M342.9,314.48a100.94,100.94,0,0,1,20.6,9.7,61.57,61.57,0,0,1,17.16,16.31,152.06,152.06,0,0,1,22,44.43,118.29,118.29,0,0,1,5,27.09.26.26,0,0,1-.52.05,154,154,0,0,0-13.42-46c-6.72-14.26-15.21-29.43-28.19-38.87-7.06-5.14-15-8.5-22.92-12.06C342.19,314.93,342.49,314.34,342.9,314.48Z" style="fill: rgb(130, 87, 229); transform-origin: 375.034px 363.377px;" id="el6ggrsbwa2uj" class="animable"></path><path d="M397.49,374.75a92.13,92.13,0,0,0-16.4-11.93c-9.16-5.09-16.6-8.44-18.87-12.88s4.8-10.22,4.8-10.22-9.36,4.58-13.24,1.22-12-27-12-27,21.59,7.68,35.07,23.24S397.49,374.75,397.49,374.75Z" style="fill: rgb(130, 87, 229); transform-origin: 369.635px 344.345px;" id="elylmd01zm50n" class="animable"></path><path d="M396.37,369.88c-10.8-20.27-25.21-38.61-45-50.71,0,0,0,0,0,0a99.18,99.18,0,0,1,14.46,11.31,22.84,22.84,0,0,0-11.61,2.45c-.08,0,0,.15.06.12a32,32,0,0,1,11.94-2c.06,0,.09,0,.14-.05.7.67,1.39,1.34,2.07,2a36.82,36.82,0,0,0-6.2.83c-.06,0,0,.09,0,.08a32,32,0,0,1,6.55-.54A135,135,0,0,1,379,345a10.37,10.37,0,0,0-4.33.31.08.08,0,1,0,0,.16,23.89,23.89,0,0,1,4.63-.06c.59.75,1.19,1.5,1.77,2.26A42,42,0,0,0,368,348.9a.05.05,0,0,0,0,.1,53.32,53.32,0,0,1,13.46-.88c.55.74,1.07,1.49,1.61,2.23a28.54,28.54,0,0,0-7.8.89.08.08,0,0,0,0,.16,29.63,29.63,0,0,1,8.08-.63c2.32,3.2,4.54,6.47,6.68,9.78a7.21,7.21,0,0,0-3.42.21c-.06,0,0,.1,0,.09a14.31,14.31,0,0,1,3.7.18q2.89,4.49,5.57,9.05C396.1,370.34,396.51,370.15,396.37,369.88Z" style="fill: rgb(38, 50, 56); transform-origin: 373.884px 344.687px;" id="elzwvv2poteq" class="animable"></path><path d="M379.57,353.07a16.64,16.64,0,0,0-6.27.76c-.06,0-.05.11,0,.1a46.8,46.8,0,0,1,6.24-.64C379.69,353.28,379.72,353.08,379.57,353.07Z" style="fill: rgb(38, 50, 56); transform-origin: 376.464px 353.48px;" id="el2uvqt39z1ak" class="animable"></path><path d="M360.73,328.36a10.79,10.79,0,0,0-2.89.17.09.09,0,0,0,0,.17c.95-.1,1.89-.06,2.84-.09A.13.13,0,0,0,360.73,328.36Z" style="fill: rgb(38, 50, 56); transform-origin: 359.295px 328.514px;" id="elsa83zu3z4f" class="animable"></path><polygon points="425.35 441.78 376.6 441.78 383.55 390.87 385.33 377.82 416.62 377.82 418.39 390.87 425.35 441.78" style="fill: rgb(69, 90, 100); transform-origin: 400.975px 409.8px;" id="elsiy5je0dmc" class="animable"></polygon><polygon points="418.39 390.87 383.55 390.87 385.33 377.82 416.62 377.82 418.39 390.87" style="fill: rgb(38, 50, 56); transform-origin: 400.97px 384.345px;" id="elmq88r6yma48" class="animable"></polygon><rect x="380.85" y="373.29" width="40.24" height="11.06" style="fill: rgb(69, 90, 100); transform-origin: 400.97px 378.82px;" id="el52imnidcp7a" class="animable"></rect></g><defs>     <filter id="active" height="200%">         <feMorphology in="SourceAlpha" result="DILATED" operator="dilate" radius="2"></feMorphology>                <feFlood flood-color="#32DFEC" flood-opacity="1" result="PINK"></feFlood>        <feComposite in="PINK" in2="DILATED" operator="in" result="OUTLINE"></feComposite>        <feMerge>            <feMergeNode in="OUTLINE"></feMergeNode>            <feMergeNode in="SourceGraphic"></feMergeNode>        </feMerge>    </filter>    <filter id="hover" height="200%">        <feMorphology in="SourceAlpha" result="DILATED" operator="dilate" radius="2"></feMorphology>                <feFlood flood-color="#ff0000" flood-opacity="0.5" result="PINK"></feFlood>        <feComposite in="PINK" in2="DILATED" operator="in" result="OUTLINE"></feComposite>        <feMerge>            <feMergeNode in="OUTLINE"></feMergeNode>            <feMergeNode in="SourceGraphic"></feMergeNode>        </feMerge>            <feColorMatrix type="matrix" values="0   0   0   0   0                0   1   0   0   0                0   0   0   0   0                0   0   0   1   0 "></feColorMatrix>    </filter></defs></svg>